<?xml version="1.0" encoding="UTF-8"?>
<svg width="210px" height="139px" viewBox="0 0 210 139" version="1.1" xmlns="http://www.w3.org/2000/svg" xmlns:xlink="http://www.w3.org/1999/xlink">
    <!-- Generator: Sketch 51.3 (57544) - http://www.bohemiancoding.com/sketch -->
    <title>undraw_booking_33fn</title>
    <desc>Created with Sketch.</desc>
    <defs></defs>
    <g id="Page-1" stroke="none" stroke-width="1" fill="none" fill-rule="evenodd">
        <g id="home" transform="translate(-514.000000, -755.000000)" fill-rule="nonzero">
            <g id="undraw_booking_33fn" transform="translate(514.000000, 755.000000)">
                <path d="M122.010921,22.9180927 C108.548952,22.4559575 95.7274089,18.1568113 83.4829932,13.4544475 C71.2385775,8.75208376 59.1114491,3.54155539 45.9696929,1.05044412 C37.5194264,-0.553220264 27.8534683,-0.779684925 21.0433615,3.70173771 C14.4901696,8.01377214 12.3734141,15.4576471 11.2340524,22.3657399 C10.3776693,27.56338 9.87500972,33.031673 12.2207546,37.8979015 C13.849744,41.2746184 16.7428293,44.113712 18.7367124,47.3486584 C25.6976171,58.6074503 20.7845849,72.4880769 13.2335206,83.4817394 C9.6962863,88.6370325 5.58937115,93.5566551 2.86011565,99.045201 C0.130860156,104.533747 -1.12765056,110.823205 1.27208363,116.431427 C3.64016889,121.980732 9.2774033,126.149154 15.3968186,129.082148 C27.8032024,135.027306 42.4343203,136.732235 56.7005446,137.697011 C88.2824616,139.832775 120.033793,138.908505 151.699487,137.982393 C163.417041,137.638093 175.188584,137.291952 186.716244,135.498647 C193.118639,134.504412 199.727682,132.921 204.376352,129.111607 C210.276086,124.271155 211.739384,116.074239 207.785129,110.003881 C201.153745,99.8221773 182.81784,97.2997661 178.184063,86.3668624 C175.631669,80.3535812 178.252946,73.6535414 181.961457,68.076619 C189.914649,56.1089743 203.246299,45.6142705 203.948161,31.9361732 C204.432203,22.5461751 198.022362,13.1340829 188.112521,8.68948377 C177.724223,4.03130823 163.322094,4.61680223 155.657466,12.3294889 C147.76571,20.2704815 133.89789,23.3249926 122.010921,22.9180927 Z" id="Shape" fill="#6C63FF" opacity="0.1"></path>
                <path d="M167,126.181861 C166.496431,126.022289 165.964523,125.966841 165.437942,126.019027 C164.796493,126.087077 164.887065,127.043425 165.530995,126.998464 C165.853042,126.974097 166.171585,126.916668 166.481382,126.827123 L167,126.181861 Z" id="Shape" fill="#6C63FF"></path>
                <path d="M167.622235,126 C167.851161,126.468661 167.979696,126.979656 167.999669,127.500489 C168.020501,128.135359 167.052409,128.180532 167.008294,127.546884 C166.989173,127.229679 167.003136,126.911355 167.049958,126.597021 L167.622235,126 Z" id="Shape" fill="#6C63FF"></path>
                <path d="M170,123.825954 C170,123.825954 169.562941,122.648534 166.890489,123.105266 C165.681235,123.311389 165.714058,124.800217 166.925039,124.957404 L166.976865,124.957404 C168.740648,125.167975 169.353913,124.567402 170,123.825954 Z" id="Shape" fill="#6C63FF"></path>
                <path d="M169.732805,124 C169.732805,124 170.92479,124.112982 170.999379,126.850633 C171.033805,128.083011 169.62666,128.456722 169.249413,127.312992 C169.249413,127.29561 169.239372,127.279967 169.233634,127.262585 C168.70721,125.592183 169.156177,124.830855 169.732805,124 Z" id="Shape" fill="#6C63FF"></path>
                <path d="M173,119.063235 C172.78731,118.125694 172.023651,117.364161 171.003657,117.072451 C169.130744,116.545197 168.141516,119.047257 169.971497,119.683158 C170.728839,119.930197 171.535207,120.03464 172.339919,119.989924 L173,119.063235 Z" id="Shape" fill="#6C63FF"></path>
                <path d="M174,113.904667 C174,113.904667 173.346867,112.340842 171.653046,112.028077 C169.857317,111.694982 169.313812,114.426984 171.087924,114.863292 C171.883957,115.038445 172.70711,115.045366 173.505904,114.883621 L174,113.904667 Z" id="Shape" fill="#6C63FF"></path>
                <path d="M177,110.322508 C176.430848,109.648719 175.522328,109.178267 174.48327,109.019288 C172.910314,108.796556 172.380227,110.570119 173.92487,110.873414 C174.894942,111.052062 175.909472,111.041461 176.872591,110.84261 L177,110.322508 Z" id="Shape" fill="#6C63FF"></path>
                <path d="M178,104.337996 C177.477411,103.728019 176.664301,103.270287 175.707229,103.047302 C174.069535,102.691288 173.260514,104.449323 174.888382,104.832009 C175.853402,105.058743 176.896638,105.055892 177.859158,104.823891 L178,104.337996 Z" id="Shape" fill="#6C63FF"></path>
                <path d="M178,101.041009 C178,101.041009 177.354158,99.217151 176.038255,98.2527231 C174.572193,97.1774637 173.17556,99.808252 174.58511,100.992398 C175.453768,101.725441 176.566231,102.230988 177.865988,101.892661 L178,101.041009 Z" id="Shape" fill="#6C63FF"></path>
                <path d="M178,95.930602 C178,95.930602 177.307447,94.088985 175.978876,93.2080426 C174.493263,92.2356999 173.200812,94.923255 174.600051,96.0822875 C175.515603,96.83877 176.658866,97.3288307 177.872796,96.7376464 L178,95.930602 Z" id="Shape" fill="#6C63FF"></path>
                <path d="M179,91.8845105 C178.424618,90.9148078 177.719474,90.0435944 176.907776,89.2995435 C175.753566,88.2750255 174.292496,90.1195367 175.385683,91.2141234 C176.395181,92.219704 177.652259,93.0643159 178.951181,92.996141 L179,91.8845105 Z" id="Shape" fill="#6C63FF"></path>
                <path d="M177.893802,86.1316208 C177.256552,85.0887909 176.488795,84.1264317 175.608016,83.26646 C174.734832,82.4487772 173.443599,83.6949258 174.259469,84.5567636 C175.201766,85.537983 176.472771,86.5551805 178,87 L177.893802,86.1316208 Z" id="Shape" fill="#6C63FF"></path>
                <path d="M177.751286,81.7054718 C177.181173,80.8365393 176.517144,80.0304187 175.770716,79.3010918 C174.816093,78.3848813 173.376842,79.7636794 174.293061,80.7157494 C175.265973,81.7287804 176.524174,82.6772644 178,83 L177.751286,81.7054718 Z" id="Shape" fill="#6C63FF"></path>
                <path d="M175.988709,77.2336922 C175.471663,76.5337131 174.910834,75.8671714 174.309587,75.2380654 C173.635357,74.5427419 172.55788,75.5203893 173.193398,76.2528182 C173.940212,77.1143095 174.898328,77.8773908 176,78 L175.988709,77.2336922 Z" id="Shape" fill="#6C63FF"></path>
                <path d="M176,72.5193766 C175.497386,71.4103752 174.922676,70.3447991 174.280576,69.3313707 C173.742396,68.5019078 172.621332,69.3895106 173.128562,70.2422295 C173.79226,71.3604541 174.713871,72.4670507 175.924345,73 L176,72.5193766 Z" id="Shape" fill="#6C63FF"></path>
                <path d="M175,66.2690348 C175,66.2690348 174.643797,65.7805588 174.134729,65.2128075 C173.664599,64.6893572 172.672422,65.2302947 173.107941,65.7723981 C173.598261,66.3797871 174.212604,66.8974084 174.927894,67 L175,66.2690348 Z" id="Shape" fill="#6C63FF"></path>
                <path d="M174.875713,61.8220382 L174.267874,59.4090668 C174.10669,58.7707472 172.90849,58.9233889 173.005589,59.5632503 C173.22309,60.8522242 173.78238,62.1489072 175,63 L174.875713,61.8220382 Z" id="Shape" fill="#6C63FF"></path>
                <path d="M175,55.2296232 C174.897704,55.0545745 174.630214,54.9622458 174.377039,55.0145973 C174.123864,55.0669489 173.964829,55.2474741 174.006659,55.4350261 C174.124621,55.9665119 174.303794,56.4899818 174.542317,57 L175,55.2296232 Z" id="Shape" fill="#6C63FF"></path>
                <path d="M173.575474,119.128452 C174.592079,118.839042 175.710677,119.046614 176.499311,119.67101 C177.92906,120.822406 175.995325,122.753729 174.470854,121.691733 C173.856445,121.242426 173.355782,120.688908 173,120.065598 L173.575474,119.128452 Z" id="Shape" fill="#6C63FF"></path>
                <path d="M175.509577,114.075666 C175.509577,114.075666 177.206015,113.602756 178.518658,115.021485 C179.910318,116.52586 177.986505,118.989088 176.520667,117.579668 C175.880162,116.932576 175.362438,116.13959 175,115.250493 L175.509577,114.075666 Z" id="Shape" fill="#6C63FF"></path>
                <path d="M176.128224,110.568005 C176.967045,110.086466 178.014379,109.899919 179.028524,110.051416 C180.554998,110.296245 180.174906,112.148378 178.637747,111.990464 C177.678847,111.878879 176.77112,111.573462 176,111.102957 L176.128224,110.568005 Z" id="Shape" fill="#6C63FF"></path>
                <path d="M178.128386,104.636851 C178.907441,104.181702 179.869787,103.958141 180.841929,104.006472 C182.499852,104.118731 182.322331,106.078952 180.662822,105.997533 C179.680406,105.94994 178.745085,105.653122 178,105.152504 L178.128386,104.636851 Z" id="Shape" fill="#6C63FF"></path>
                <path d="M178,101.014769 C178,101.014769 178.862869,99.657546 180.240349,99.1026066 C181.768637,98.4858312 182.749664,100.821333 181.264908,101.539583 C180.332077,101.988291 179.208016,102.215024 178.013992,101.72192 L178,101.014769 Z" id="Shape" fill="#6C63FF"></path>
                <path d="M179,94.9692743 C179,94.9692743 179.859702,93.6113896 181.234307,93.0929245 C182.766753,92.5142804 183.745986,94.7979957 182.273305,95.5309449 C181.309397,96.0092906 180.1524,96.2469205 179.039844,95.626614 L179,94.9692743 Z" id="Shape" fill="#6C63FF"></path>
                <path d="M178,91.0608423 C178.409398,90.1154474 178.980173,89.22783 179.693525,88.4272256 C180.713489,87.3158062 182.697608,88.5928618 181.750774,89.7523158 C180.880918,90.817357 179.718543,91.7929547 178.286745,92 L178,91.0608423 Z" id="Shape" fill="#6C63FF"></path>
                <path d="M178,86.087405 C178.296358,84.8340061 178.735891,83.6253405 179.308464,82.4892728 C179.886959,81.4060016 181.412963,82.3029223 180.894089,83.4210253 C180.301091,84.7010966 179.411594,86.1030793 178.132135,87 L178,86.087405 Z" id="Shape" fill="#6C63FF"></path>
                <path d="M177,80.8571519 C177.347726,79.9899569 177.793771,79.1630372 178.329899,78.3916643 C178.993238,77.4536221 180.463211,78.3729034 179.856223,79.3422137 C179.196104,80.3990746 178.265497,81.4621891 177.017711,82 L177,80.8571519 Z" id="Shape" fill="#6C63FF"></path>
                <path d="M176,77.2446658 C176.165702,76.3285923 176.380576,75.4256154 176.643348,74.5410901 C176.940507,73.556551 178.219774,74.0323248 177.967189,75.0342279 C177.670031,76.2115075 177.160404,77.3870506 176.285272,78 L176,77.2446658 Z" id="Shape" fill="#6C63FF"></path>
                <path d="M176,72.6017617 C176.22208,71.5207174 176.510582,70.4610263 176.863124,69.4314384 C177.16234,68.5864805 178.226859,69.1007274 177.956414,69.959537 C177.60541,71.0849931 177.041503,72.2589304 176.146731,73 L176,72.6017617 Z" id="Shape" fill="#6C63FF"></path>
                <path d="M175,67.1099329 C175,67.1099329 175.169314,66.3715641 175.477321,65.4784011 C175.761912,64.6548955 177.210086,64.9784155 176.974127,65.8127567 C176.711151,66.7415225 176.253643,67.6161102 175.46111,68 L175,67.1099329 Z" id="Shape" fill="#6C63FF"></path>
                <path d="M175.259715,61.7852596 L176.057937,59.3557788 C176.269231,58.7079172 177.149622,59.0221301 176.977946,59.6797096 C176.633126,60.9916292 176.03446,62.2711558 175,63 L175.259715,61.7852596 Z" id="Shape" fill="#6C63FF"></path>
                <path d="M176.15371,55.3428983 C176.15371,55.3428983 176.262309,55.2460084 176.428403,55.0935493 C176.766978,54.7800821 177.209042,55.3272249 176.889631,55.6634897 C176.333571,56.2271754 175.694269,56.6793445 175,57 L176.15371,55.3428983 Z" id="Shape" fill="#6C63FF"></path>
                <path d="M176.182064,53 C176.715353,51.8069731 177.309504,50.6477789 177.961697,49.5279169 C178.039068,49.3681648 177.996055,49.1703045 177.861265,49.0659212 C177.726475,48.961538 177.54189,48.9831442 177.430268,49.1163709 C176.905399,49.9035201 176.390371,51.0554897 176,52.7483998 L176.182064,53 Z" id="Shape" fill="#6C63FF"></path>
                <path d="M175.55136,67 L175.791078,66.9795222 C174.757812,59.0255973 175.19385,54.1211604 177,53.1706485 L176.869808,53 C174.956199,54.0119454 174.501562,58.8515358 175.55136,67 Z" id="Shape" fill="#444053"></path>
                <path d="M177.730809,88 L178,87.9519451 C177.898859,87.1553424 177.782158,86.3458018 177.651452,85.5491991 C176.518672,78.5572082 175.637967,72.0938215 175.197614,67.1848266 L175,67 C175.441909,71.9182362 176.244813,78.6052632 177.385373,85.6064953 C177.512967,86.3975532 177.629668,87.2052456 177.730809,88 Z" id="Shape" fill="#444053"></path>
                <path d="M163.258566,132 C163.306245,131.961387 168.191488,128.214125 172.480746,121.026661 C174.994711,116.820561 176.826858,112.240998 177.908793,107.458922 C179.263971,101.481321 179.302481,94.5200167 178.325066,88 L178.038993,88.229837 C180.239553,102.862181 176.041985,114.223485 172.124988,120.791308 C167.877908,127.912578 163.049513,131.621229 163,131.658003 L163.258566,132 Z" id="Shape" fill="#444053"></path>
                <ellipse id="Oval" fill="#6C63FF" cx="35.5" cy="129" rx="12.5" ry="2"></ellipse>
                <ellipse id="Oval" fill="#3F3D56" cx="35" cy="128" rx="1" ry="2"></ellipse>
                <ellipse id="Oval" fill="#3F3D56" cx="35" cy="126" rx="1" ry="2"></ellipse>
                <ellipse id="Oval" fill="#3F3D56" cx="35" cy="125" rx="1" ry="2"></ellipse>
                <ellipse id="Oval" fill="#3F3D56" cx="35" cy="122" rx="1" ry="2"></ellipse>
                <ellipse id="Oval" fill="#3F3D56" cx="35" cy="119" rx="1" ry="2"></ellipse>
                <ellipse id="Oval" fill="#3F3D56" cx="35" cy="117" rx="1" ry="2"></ellipse>
                <ellipse id="Oval" fill="#3F3D56" cx="35" cy="115" rx="1" ry="2"></ellipse>
                <path d="M42.0428839,98.4243778 L38.2073178,97.800968 L42.3518391,97.8308319 C43.1565973,96.0978161 43.2049807,94.1128163 42.4855941,92.3433324 L36.9206324,95.2028049 L42.0523033,91.4698121 C40.7444243,89.2205833 38.2772881,87.884375 35.6602907,88.007879 C33.0432933,88.131383 30.7155147,89.6938779 29.6293346,92.0560896 C28.5431545,94.4183012 28.8808123,97.1838977 30.5041598,99.2213718 C30.1939,99.6132782 29.9267598,100.036885 29.7072814,100.48499 L34.6863586,103.047689 L29.3813713,101.281984 C28.6249089,103.500196 29.0500657,105.94687 30.5116953,107.786724 C28.2557234,110.626853 28.5821967,114.707996 31.2615612,117.16057 C33.9409256,119.613143 38.0729819,119.613143 40.7523464,117.16057 C43.4317109,114.707996 43.7581842,110.626853 41.5022123,107.786724 C43.4988789,105.274278 43.4988789,101.733818 41.5022123,99.2213718 C41.6985068,98.9662181 41.8804373,98.7011412 42.0428839,98.4243778 Z" id="Shape" fill="#6C63FF"></path>
                <path d="M29.0019943,103.098349 C29.0003973,104.592165 29.5278961,106.042875 30.4992771,107.216126 C28.2410619,109.947494 28.5678598,113.872355 31.2498886,116.231009 C33.9319174,118.589664 38.0680826,118.589664 40.7501114,116.231009 C43.4321402,113.872355 43.7589381,109.947494 41.5007229,107.216126 C42.4398247,106.083468 29.0019943,102.349825 29.0019943,103.098349 Z" id="Shape" fill="#000000" opacity="0.1"></path>
                <path d="M43,48 L43,130.132763 C43,130.893202 43.3006215,131.622495 43.8357311,132.160206 C44.3708408,132.697917 45.0966053,133 45.8533646,133 L163.146635,133 C164.722505,133 166,131.716294 166,130.132763 L166,48 L43,48 Z" id="Shape" fill="#FFFFFF"></path>
                <rect id="Rectangle-path" fill="#000000" opacity="0.1" x="54" y="56" width="30" height="18" rx="2"></rect>
                <rect id="Rectangle-path" fill="#000000" opacity="0.1" x="90" y="56" width="30" height="18" rx="2"></rect>
                <rect id="Rectangle-path" fill="#6C63FF" x="55" y="57" width="28" height="16" rx="2"></rect>
                <rect id="Rectangle-path" fill="#444053" opacity="0.1" transform="translate(142.500000, 64.000000) rotate(-180.000000) translate(-142.500000, -64.000000) " x="128" y="56" width="29" height="16" rx="2"></rect>
                <rect id="Rectangle-path" fill="#6C63FF" transform="translate(105.000000, 65.000000) rotate(-180.000000) translate(-105.000000, -65.000000) " x="91" y="57" width="28" height="16" rx="2"></rect>
                <rect id="Rectangle-path" fill="#444053" opacity="0.1" x="54" y="81" width="29" height="16" rx="2"></rect>
                <rect id="Rectangle-path" fill="#444053" opacity="0.1" transform="translate(142.500000, 89.000000) rotate(-180.000000) translate(-142.500000, -89.000000) " x="128" y="81" width="29" height="16" rx="2"></rect>
                <rect id="Rectangle-path" fill="#444053" opacity="0.1" transform="translate(104.500000, 89.000000) rotate(-180.000000) translate(-104.500000, -89.000000) " x="90" y="81" width="29" height="16" rx="2"></rect>
                <rect id="Rectangle-path" fill="#444053" opacity="0.1" x="54" y="104" width="29" height="16" rx="2"></rect>
                <rect id="Rectangle-path" fill="#444053" opacity="0.1" transform="translate(142.500000, 112.000000) rotate(-180.000000) translate(-142.500000, -112.000000) " x="128" y="104" width="29" height="16" rx="2"></rect>
                <rect id="Rectangle-path" fill="#444053" opacity="0.1" transform="translate(104.500000, 112.000000) rotate(-180.000000) translate(-104.500000, -112.000000) " x="90" y="104" width="29" height="16" rx="2"></rect>
                <path d="M43.0000006,33.902801 L43,49 L166,49 L165.999999,33.902801 C166.00049,33.1331034 165.700086,32.3947597 165.164923,31.8503247 C164.62976,31.3058898 163.903715,30.9999998 163.146635,31 L45.8533652,31 C45.0962851,30.9999998 44.3702401,31.3058898 43.8350772,31.8503247 C43.2999143,32.3947597 42.9995096,33.1331034 43.0000006,33.902801 Z M73.4395905,38.3689381 C72.1815518,38.3689381 71.1617099,37.3320992 71.1617099,36.0530936 C71.1617099,34.7740881 72.1815518,33.7372492 73.4395905,33.7372492 C74.6976292,33.7372492 75.7174711,34.7740881 75.7174711,36.0530936 C75.7174711,37.3320992 74.6976292,38.3689381 73.4395905,38.3689381 Z M135.560409,38.3689381 C134.302371,38.3689381 133.282529,37.3320992 133.282529,36.0530936 C133.282529,34.7740881 134.302371,33.7372492 135.560409,33.7372492 C136.818448,33.7372492 137.83829,34.7740881 137.83829,36.0530936 C137.838291,36.6679462 137.597793,37.2575613 137.169806,37.6919747 C136.74182,38.1263881 136.161481,38.3699371 135.556709,38.3689381 L135.560409,38.3689381 Z" id="Shape" fill="#6C63FF"></path>
                <path d="M73.5017543,34.0000006 C72.4904575,33.9993055 71.578353,34.6079612 71.1908648,35.5420783 C70.8033765,36.4761953 71.0168385,37.5517558 71.7316876,38.2670966 C72.4465367,38.9824375 73.5219502,39.1966388 74.4563334,38.8097929 C75.3907166,38.4229469 75.9999992,37.5112611 75.9999994,36.499964 C76.0004553,35.8370905 75.7374494,35.2012106 75.2688881,34.732327 C74.8003269,34.2634435 74.1646279,34.0000004 73.5017543,34.0000006 Z M73.5017543,38.6150532 C72.3336228,38.6150532 71.3866651,37.6680955 71.3866651,36.499964 C71.3866651,35.3318324 72.3336228,34.3848747 73.5017543,34.3848747 C74.6698858,34.3848747 75.6168435,35.3318324 75.6168435,36.499964 C75.6168435,37.6680955 74.6698858,38.6150532 73.5017543,38.6150532 Z" id="Shape" fill="#000000" opacity="0.1"></path>
                <path d="M135.5,34 C134.119288,34 133,35.1192881 133,36.5 C133,37.8807119 134.119288,39 135.5,39 C136.880712,39 138,37.8807119 138,36.5 C138,35.1192881 136.880712,34 135.5,34 Z M135.5,38.6151203 C134.331851,38.6151203 133.38488,37.6681487 133.38488,36.5 C133.38488,35.3318513 134.331851,34.3848797 135.5,34.3848797 C136.668149,34.3848797 137.61512,35.3318513 137.61512,36.5 C137.61512,37.6681487 136.668149,38.6151203 135.5,38.6151203 Z" id="Shape" fill="#000000" opacity="0.1"></path>
                <circle id="Oval" fill="#6C63FF" opacity="0.1" cx="192.5" cy="79.5" r="3.5"></circle>
                <circle id="Oval" fill="#6C63FF" opacity="0.1" cx="203" cy="65" r="5"></circle>
                <circle id="Oval" fill="#6C63FF" opacity="0.1" cx="196" cy="88" r="5"></circle>
                <circle id="Oval" fill="#6C63FF" opacity="0.1" cx="6.5" cy="63.5" r="6.5"></circle>
                <path d="M160,109 C160,109 158.493628,109.99961 158.493628,110.748368 C158.493628,111.497125 158.1113,118.235941 158.1113,118.235941 L158.1113,122.98694 C158.1113,122.98694 158.361725,125.484065 158.1113,126.107396 C157.860875,126.730727 158.1113,129.602231 158.1113,129.976609 C158.1113,130.350988 158.493628,126.107396 158.493628,126.107396 L158.493628,121.60725 L158.875956,111.371699 L160,109 Z" id="Shape" fill="#000000" opacity="0.1"></path>
                <path d="M77.7781785,55.5619911 L76.3678881,54.2112841 C76.2272447,54.0760691 76.0357002,54 75.8358682,54 C75.6360363,54 75.4444918,54.0760691 75.3038483,54.2112841 L66.4472247,62.5693627 L62.7007154,58.9748886 C62.4090193,58.6971087 61.9361526,58.6971087 61.6444565,58.9748886 L60.2186043,60.3181843 C59.9271319,60.5989779 59.9271319,61.0508842 60.2186043,61.3316778 L65.9083965,66.7919433 C66.20253,67.0693522 66.6763576,67.0693522 66.9704911,66.7919433 L77.7781785,56.5754845 C77.920137,56.4415222 78,56.2590769 78,56.0687378 C78,55.8783987 77.920137,55.6959534 77.7781785,55.5619911 Z" id="Shape" fill="#3ACC6C"></path>
                <path d="M116.778178,55.5619911 L115.367888,54.2112841 C115.227245,54.0760691 115.0357,54 114.835868,54 C114.636036,54 114.444492,54.0760691 114.303848,54.2112841 L105.447225,62.5693627 L101.700715,58.9748886 C101.409019,58.6971087 100.936153,58.6971087 100.644457,58.9748886 L99.2186043,60.3181843 C98.9271319,60.5989779 98.9271319,61.0508842 99.2186043,61.3316778 L104.908397,66.7919433 C105.20253,67.0693522 105.676358,67.0693522 105.970491,66.7919433 L116.778178,56.5754845 C116.920137,56.4415222 117,56.2590769 117,56.0687378 C117,55.8783987 116.920137,55.6959534 116.778178,55.5619911 Z" id="Shape" fill="#3ACC6C"></path>
            </g>
        </g>
    </g>
</svg>