<svg width="210" height="146" xmlns="http://www.w3.org/2000/svg"><defs><linearGradient x1="49.997%" y1="100%" x2="49.997%" y2="-.004%" id="a"><stop stop-color="gray" stop-opacity=".25" offset="0%"/><stop stop-color="gray" stop-opacity=".12" offset="54%"/><stop stop-color="gray" stop-opacity=".1" offset="100%"/></linearGradient><linearGradient x1="50.003%" y1="99.998%" x2="50.003%" y2="0%" id="b"><stop stop-color="gray" stop-opacity=".25" offset="0%"/><stop stop-color="gray" stop-opacity=".12" offset="54%"/><stop stop-color="gray" stop-opacity=".1" offset="100%"/></linearGradient><linearGradient x1="50%" y1="100%" x2="50%" y2="0%" id="c"><stop stop-color="gray" stop-opacity=".25" offset="0%"/><stop stop-color="gray" stop-opacity=".12" offset="54%"/><stop stop-color="gray" stop-opacity=".1" offset="100%"/></linearGradient><linearGradient x1="0%" y1="49.993%" x2="100%" y2="49.993%" id="d"><stop stop-color="gray" stop-opacity=".25" offset="0%"/><stop stop-color="gray" stop-opacity=".12" offset="54%"/><stop stop-color="gray" stop-opacity=".1" offset="100%"/></linearGradient><linearGradient x1="49.995%" y1="100%" x2="49.995%" y2="0%" id="e"><stop stop-color="gray" stop-opacity=".25" offset="0%"/><stop stop-color="gray" stop-opacity=".12" offset="54%"/><stop stop-color="gray" stop-opacity=".1" offset="100%"/></linearGradient><linearGradient x1="50.003%" y1="100%" x2="50.003%" y2="0%" id="f"><stop stop-color="gray" stop-opacity=".25" offset="0%"/><stop stop-color="gray" stop-opacity=".12" offset="54%"/><stop stop-color="gray" stop-opacity=".1" offset="100%"/></linearGradient></defs><g fill="none"><path d="M59.678 6.018c-3.176-.058-6.431 0-9.41.583-8.106 1.59-11.948 6.79-10.699 11.283 1.25 4.494 2.93 4.494 11.72 11.987 6.676 16.722-26.654 22.83-29.279 23.31-2.88.523-5.28 1.592-7.487 2.706C5.898 60.252-1.007 66.215.121 72.468c1.26 7.099 12.507 12.71 24.825 15.72 4.078 1.005 8.393 1.805 11.983 3.228 9.457 3.754 11.581 10.795 10.64 17.009-.942 6.213-4.15 12.434-2.365 18.592 2.1 7.165 11.396 13.637 23.935 16.66 11.171 2.693 25.152 2.514 35.07-1.285 4.835-1.856 8.492-4.434 11.672-7.099 4.722-3.936 8.622-8.247 11.605-12.824 1.383-2.135 7.512 1.483 10.739 0 1.97-.913 23.011 9.347 25.537 8.95 7.613-1.197 10.705-.8 18.389-1.867 7.684-1.066 14.508-9.445 18.684-12.998 5.911-5.029-2.98-19.224-2.952-25.138.047-13.494 4.043-28.838 9.713-41.991 1.852-4.298 2.542-9.053-1.596-12.888-2.81-2.602-7.55-4.48-12.53-5.932-10.96-3.19-33.267-22.621-45.518-24.004-17.027-1.921-30.227 1.967-43.423-4.249-12.645-5.955-27.596 3.666-44.851 3.666z" fill="#6C63FF" opacity=".101"/><path d="M202.994 103.587h-16.082a5.632 5.632 0 0 0 .567-2.46v-75.25c-.002-3.054-2.412-5.528-5.385-5.528H57.606c-2.974 0-5.385 2.477-5.385 5.532v75.245c.001.854.195 1.697.567 2.46h-16.65c-.787 0-1.424.655-1.424 1.463v1.179c0 4.52 3.566 8.183 7.965 8.183h153.785c4.399 0 7.965-3.663 7.965-8.183v-1.179c0-.39-.152-.764-.421-1.038a1.404 1.404 0 0 0-1.014-.424zm-99.09 4.68l-1.38-1.61h34.23l-1.528 1.61h-31.323z" fill="url(#a)"/><rect fill="#604CFF" x="54" y="21.146" width="132.686" height="84.497" rx="7"/><path fill="#F1F1F4" d="M56.314 33.9h126.514v69.351H56.314z"/><ellipse fill="#FFF" cx="119.957" cy="27.921" rx="1.157" ry="1.196"/><path d="M139.605 103.251l-4.347 4.482h-30.615l-3.924-4.482h-62.3c-.768 0-1.39.627-1.39 1.4v1.13c0 2.08.82 4.073 2.282 5.542a7.757 7.757 0 0 0 5.51 2.291h150.282c4.298 0 7.783-3.507 7.783-7.833v-1.13c0-.773-.623-1.4-1.391-1.4h-61.89z" fill="#604CFF"/><path fill="#FFF" d="M64.029 38.683h33.943v27.103H64.029z"/><path fill="#6C63FF" opacity=".2" d="M67.114 41.871h11.571v7.174H67.114z"/><path fill="#E6E8EC" d="M81.771 41.871h13.886v1.594H81.771zm0 2.392H91.8v1.594H81.771zm0 2.391h13.886v1.594H81.771zm-14.657 3.189h27.771v1.594H67.114zm0 2.391h27.771v1.594H67.114zm0 2.392h27.771v1.594H67.114zm0 2.391h25.457v1.594H67.114zm0 2.392h27.771v1.594H67.114zm0 2.391h27.771v1.594H67.114z"/><path fill="#FFF" d="M102.6 38.683h33.943v27.103H102.6z"/><path fill="#6C63FF" opacity=".2" d="M105.686 41.871h11.571v7.174h-11.571z"/><path fill="#E6E8EC" d="M119.571 41.871h13.886v1.594h-13.886zm0 2.392H129.6v1.594h-10.029zm0 2.391h13.886v1.594h-13.886zm-13.885 3.189h27.771v1.594h-27.771zm0 2.391h27.771v1.594h-27.771zm0 2.392h27.771v1.594h-27.771zm0 2.391h25.457v1.594h-25.457zm0 2.392h27.771v1.594h-27.771zm0 2.391h27.771v1.594h-27.771z"/><path fill="#FFF" d="M140.4 38.683h33.943v27.103H140.4z"/><path fill="#6C63FF" opacity=".2" d="M143.486 41.871h11.571v7.174h-11.571z"/><path fill="#E6E8EC" d="M158.143 41.871h13.886v1.594h-13.886zm0 2.392h10.029v1.594h-10.029zm0 2.391h13.886v1.594h-13.886zm-14.657 3.189h27.771v1.594h-27.771zm0 2.391h27.771v1.594h-27.771zm0 2.392h27.771v1.594h-27.771zm0 2.391h25.457v1.594h-25.457zm0 2.392h27.771v1.594h-27.771zm0 2.391h27.771v1.594h-27.771z"/><path fill="#FFF" d="M64.029 69.771h33.943v27.103H64.029z"/><path fill="#6C63FF" opacity=".2" d="M67.114 71.366h11.571v7.174H67.114z"/><path fill="#E6E8EC" d="M81.771 71.366h13.886v1.594H81.771zm0 3.188H91.8v1.594H81.771zm0 2.392h13.886v1.594H81.771zm-14.657 2.391h27.771v1.594H67.114zm0 3.189h27.771v1.594H67.114zm0 2.391h27.771v1.594H67.114zm0 2.392h25.457v1.594H67.114zm0 2.391h27.771v1.594H67.114zm0 3.189h27.771v1.594H67.114z"/><path fill="#FFF" d="M102.6 69.771h33.943v27.103H102.6z"/><path fill="#6C63FF" opacity=".2" d="M105.686 71.366h11.571v7.174h-11.571z"/><path fill="#E6E8EC" d="M119.571 71.366h13.886v1.594h-13.886zm0 3.188H129.6v1.594h-10.029zm0 2.392h13.886v1.594h-13.886zm-13.885 2.391h27.771v1.594h-27.771zm0 3.189h27.771v1.594h-27.771zm0 2.391h27.771v1.594h-27.771zm0 2.392h25.457v1.594h-25.457zm0 2.391h27.771v1.594h-27.771zm0 3.189h27.771v1.594h-27.771z"/><path fill="#000" opacity=".1" d="M140.4 69.771h33.943v27.103H140.4z"/><path d="M83.101 48.249H30.303a4.744 4.744 0 0 0-3.425 1.468 5.13 5.13 0 0 0-1.42 3.557v76.045a5.129 5.129 0 0 0 1.42 3.553 4.744 4.744 0 0 0 3.423 1.468h52.798a4.744 4.744 0 0 0 3.423-1.468 5.129 5.129 0 0 0 1.42-3.553V53.274a5.13 5.13 0 0 0-1.418-3.556 4.745 4.745 0 0 0-3.423-1.47z" fill="url(#b)"/><rect fill="#604CFF" x="26.229" y="49.843" width="60.943" height="84.497" rx="4"/><path fill="#F1F1F4" d="M29.314 57.017h55.543v68.554H29.314z"/><ellipse fill="#FFF" cx="57.086" cy="53.031" rx="1" ry="1"/><ellipse fill="#FFF" cx="57.086" cy="129.557" rx="2.314" ry="2.391"/><path fill="#FFF" d="M31.629 64.191h16.2v11.957h-16.2z"/><path fill="#6C63FF" opacity=".2" d="M33.171 64.989h5.4v3.189h-5.4z"/><path fill="#E6E8EC" d="M40.114 64.989h6.171v1h-6.171zm0 1.594h3.857v1h-3.857zm0 1.594h6.171v1h-6.171z"/><path fill="#E6E8EC" d="M33.171 68.974h13.114v1H33.171z"/><path fill="#E6E8EC" d="M33.171 69.771h13.114v1H33.171zm0 1.595h13.114v1H33.171zm0 1.594h11.571v1H33.171z"/><path fill="#E6E8EC" d="M33.171 73.757h13.114v1H33.171z"/><path fill="#E6E8EC" d="M33.171 74.554h13.114v1H33.171z"/><path fill="#FFF" d="M49.371 64.191h16.2v11.957h-16.2z"/><path fill="#6C63FF" opacity=".2" d="M50.914 64.989h5.4v3.189h-5.4z"/><path fill="#E6E8EC" d="M57.086 64.989h6.171v1h-6.171zm0 1.594h3.857v1h-3.857zm0 1.594h6.171v1h-6.171z"/><path fill="#E6E8EC" d="M50.914 68.974h13.114v1H50.914z"/><path fill="#E6E8EC" d="M50.914 69.771h13.114v1H50.914zm0 1.595h13.114v1H50.914zm0 1.594h11.571v1H50.914z"/><path fill="#E6E8EC" d="M50.914 73.757h13.114v1H50.914z"/><path fill="#E6E8EC" d="M50.914 74.554h13.114v1H50.914z"/><path fill="#FFF" d="M66.343 64.191h16.2v11.957h-16.2z"/><path fill="#6C63FF" opacity=".2" d="M67.886 64.989h5.4v3.189h-5.4z"/><path fill="#E6E8EC" d="M74.829 64.989H81v1h-6.171zm0 1.594h3.857v1h-3.857zm0 1.594H81v1h-6.171z"/><path fill="#E6E8EC" d="M67.886 68.974H81v1H67.886z"/><path fill="#E6E8EC" d="M67.886 69.771H81v1H67.886zm0 1.595H81v1H67.886zm0 1.594h11.571v1H67.886z"/><path fill="#E6E8EC" d="M67.886 73.757H81v1H67.886z"/><path fill="#E6E8EC" d="M67.886 74.554H81v1H67.886z"/><path fill="#FFF" d="M31.629 78.54h16.2v11.957h-16.2z"/><path fill="#6C63FF" opacity=".2" d="M33.171 79.337h5.4v3.189h-5.4z"/><path fill="#E6E8EC" d="M40.114 79.337h6.171v1h-6.171z"/><path fill="#E6E8EC" d="M40.114 80.134h3.857v1h-3.857zm0 1.595h6.171v1h-6.171z"/><path fill="#E6E8EC" d="M33.171 82.526h13.114v1H33.171zm0 1.594h13.114v1H33.171z"/><path fill="#E6E8EC" d="M33.171 84.917h13.114v1H33.171zm0 1.594h11.571v1H33.171z"/><path fill="#E6E8EC" d="M33.171 87.309h13.114v1H33.171zm0 1.594h13.114v1H33.171z"/><path fill="#FFF" d="M49.371 78.54h16.2v11.957h-16.2z"/><path fill="#6C63FF" opacity=".2" d="M50.914 79.337h5.4v3.189h-5.4z"/><path fill="#E6E8EC" d="M57.086 79.337h6.171v1h-6.171z"/><path fill="#E6E8EC" d="M57.086 80.134h3.857v1h-3.857zm0 1.595h6.171v1h-6.171z"/><path fill="#E6E8EC" d="M50.914 82.526h13.114v1H50.914zm0 1.594h13.114v1H50.914z"/><path fill="#E6E8EC" d="M50.914 84.917h13.114v1H50.914zm0 1.594h11.571v1H50.914z"/><path fill="#E6E8EC" d="M50.914 87.309h13.114v1H50.914zm0 1.594h13.114v1H50.914z"/><path fill="#FFF" d="M66.343 78.54h16.2v11.957h-16.2z"/><path fill="#6C63FF" opacity=".2" d="M67.886 79.337h5.4v3.189h-5.4z"/><path fill="#E6E8EC" d="M74.829 79.337H81v1h-6.171z"/><path fill="#E6E8EC" d="M74.829 80.134h3.857v1h-3.857zm0 1.595H81v1h-6.171z"/><path fill="#E6E8EC" d="M67.886 82.526H81v1H67.886zm0 1.594H81v1H67.886z"/><path fill="#E6E8EC" d="M67.886 84.917H81v1H67.886zm0 1.594h11.571v1H67.886z"/><path fill="#E6E8EC" d="M67.886 87.309H81v1H67.886zm0 1.594H81v1H67.886z"/><path fill="#FFF" d="M31.629 92.889h16.2v11.957h-16.2z"/><path fill="#6C63FF" opacity=".2" d="M33.171 93.686h5.4v3.189h-5.4z"/><path fill="#E6E8EC" d="M40.114 93.686h6.171v1h-6.171z"/><path fill="#E6E8EC" d="M40.114 94.483h3.857v1h-3.857zm0 1.594h6.171v1h-6.171zm-6.943 1.594h13.114v1H33.171z"/><path fill="#E6E8EC" d="M33.171 98.469h13.114v1H33.171z"/><path fill="#E6E8EC" d="M33.171 99.266h13.114v1H33.171zm0 1.594h11.571v1H33.171z"/><path fill="#E6E8EC" d="M33.171 101.657h13.114v1H33.171zm0 1.594h13.114v1H33.171z"/><path fill="#FFF" d="M49.371 92.889h16.2v11.957h-16.2z"/><path fill="#6C63FF" opacity=".2" d="M50.914 93.686h5.4v3.189h-5.4z"/><path fill="#E6E8EC" d="M57.086 93.686h6.171v1h-6.171z"/><path fill="#E6E8EC" d="M57.086 94.483h3.857v1h-3.857zm0 1.594h6.171v1h-6.171zm-6.172 1.594h13.114v1H50.914z"/><path fill="#E6E8EC" d="M50.914 98.469h13.114v1H50.914z"/><path fill="#E6E8EC" d="M50.914 99.266h13.114v1H50.914zm0 1.594h11.571v1H50.914z"/><path fill="#E6E8EC" d="M50.914 101.657h13.114v1H50.914zm0 1.594h13.114v1H50.914z"/><path fill="#FFF" d="M66.343 92.889h16.2v11.957h-16.2z"/><path fill="#6C63FF" opacity=".2" d="M67.886 93.686h5.4v3.189h-5.4z"/><path fill="#E6E8EC" d="M74.829 93.686H81v1h-6.171z"/><path fill="#E6E8EC" d="M74.829 94.483h3.857v1h-3.857zm0 1.594H81v1h-6.171zm-6.943 1.594H81v1H67.886z"/><path fill="#E6E8EC" d="M67.886 98.469H81v1H67.886z"/><path fill="#E6E8EC" d="M67.886 99.266H81v1H67.886zm0 1.594h11.571v1H67.886z"/><path fill="#E6E8EC" d="M67.886 101.657H81v1H67.886zm0 1.594H81v1H67.886z"/><path fill="#FFF" d="M31.629 106.44h16.2v11.957h-16.2z"/><path fill="#6C63FF" opacity=".2" d="M33.171 107.237h5.4v3.189h-5.4z"/><path fill="#E6E8EC" d="M40.114 107.237h6.171v1h-6.171zm0 1.594h3.857v1h-3.857z"/><path fill="#E6E8EC" d="M40.114 109.629h6.171v1h-6.171zm-6.943 1.594h13.114v1H33.171z"/><path fill="#E6E8EC" d="M33.171 112.02h13.114v1H33.171zm0 1.594h13.114v1H33.171z"/><path fill="#E6E8EC" d="M33.171 114.411h11.571v1H33.171z"/><path fill="#E6E8EC" d="M33.171 115.209h13.114v1H33.171zm0 1.594h13.114v1H33.171z"/><path fill="#FFF" d="M49.371 106.44h16.2v11.957h-16.2z"/><path fill="#6C63FF" opacity=".2" d="M50.914 107.237h5.4v3.189h-5.4z"/><path fill="#E6E8EC" d="M57.086 107.237h6.171v1h-6.171zm0 1.594h3.857v1h-3.857z"/><path fill="#E6E8EC" d="M57.086 109.629h6.171v1h-6.171zm-6.172 1.594h13.114v1H50.914z"/><path fill="#E6E8EC" d="M50.914 112.02h13.114v1H50.914zm0 1.594h13.114v1H50.914z"/><path fill="#E6E8EC" d="M50.914 114.411h11.571v1H50.914z"/><path fill="#E6E8EC" d="M50.914 115.209h13.114v1H50.914zm0 1.594h13.114v1H50.914z"/><path fill="#000" opacity=".1" d="M66.343 106.44h16.2v11.957h-16.2z"/><path d="M42.835 74.554h-27.04a2.611 2.611 0 0 0-1.894.818 2.879 2.879 0 0 0-.787 1.983v62.155c.002.745.285 1.458.787 1.983.503.526 1.184.82 1.893.818h27.04c.71.002 1.39-.292 1.893-.818a2.879 2.879 0 0 0 .787-1.983V77.357a2.879 2.879 0 0 0-.786-1.984 2.611 2.611 0 0 0-1.893-.819z" fill="url(#c)"/><rect fill="#604CFF" x="14.114" y="74.554" width="32.4" height="66.163" rx="4"/><path fill="#F1F1F4" d="M16.2 80.931h27.771v54.206H16.2z"/><ellipse fill="#FFF" cx="26.614" cy="78.141" rx="1" ry="1"/><rect fill="#FFF" x="27.771" y="77.743" width="5.4" height="1" rx=".5"/><ellipse fill="#FFF" cx="29.7" cy="137.927" rx="1.929" ry="1.993"/><path fill="#000" opacity=".1" d="M20.057 84.12h18.514v15.146H20.057z"/><path fill="#FFF" d="M20.057 100.86h18.514v15.146H20.057z"/><path fill="#6C63FF" opacity=".2" d="M21.6 101.657h6.171v3.986H21.6z"/><path fill="#E6E8EC" d="M29.314 101.657h6.943v1h-6.943zm0 1.594h5.4v1h-5.4z"/><path fill="#E6E8EC" d="M29.314 104.049h6.943v1h-6.943zm-7.714 1.594h14.657v1H21.6zm0 1.594h14.657v1H21.6zm0 1.594h14.657v1H21.6zm0 1.595h13.886v1H21.6zm0 1.594h14.657v1H21.6z"/><path fill="#E6E8EC" d="M21.6 112.817h14.657v1H21.6z"/><path fill="#FFF" d="M20.057 116.803h18.514v15.146H20.057z"/><path fill="#6C63FF" opacity=".2" d="M21.6 117.6h6.171v3.986H21.6z"/><path fill="#E6E8EC" d="M29.314 117.6h6.943v1h-6.943zm0 1.594h5.4v1h-5.4zm0 1.595h6.943v1h-6.943zm-7.714 1.594h14.657v1H21.6zm0 1.594h14.657v1H21.6zm0 1.594h14.657v1H21.6z"/><path fill="#E6E8EC" d="M21.6 126.369h13.886v1H21.6zm0 1.594h14.657v1H21.6zm0 1.594h14.657v1H21.6z"/><path fill="url(#d)" d="M72.514 113.614h17.743v13.551H72.514z"/><path fill="#FFF" d="M73.286 114.411h16.2v11.957h-16.2z"/><path fill="#6C63FF" opacity=".2" d="M74.829 115.209h5.4v3.189h-5.4z"/><path fill="#E6E8EC" d="M81 115.209h6.171v1H81zm0 1.594h3.857v1H81z"/><path fill="#E6E8EC" d="M81 117.6h6.171v1H81zm-6.171 1.594h13.114v1H74.829z"/><path fill="#E6E8EC" d="M74.829 119.991h13.114v1H74.829z"/><path fill="#E6E8EC" d="M74.829 120.789h13.114v1H74.829zm0 1.594H86.4v1H74.829zm0 1.594h13.114v1H74.829z"/><path fill="#E6E8EC" d="M74.829 124.774h13.114v1H74.829z"/><path fill="url(#e)" d="M28.543 84.12H48.6v15.146H28.543z"/><path fill="#FFF" d="M29.314 84.12h18.514v15.146H29.314z"/><path fill="#6C63FF" opacity=".2" d="M30.857 84.917h6.171v3.986h-6.171z"/><path fill="#E6E8EC" d="M38.571 84.917h6.943v1h-6.943zm0 1.594h5.4v1h-5.4zm0 1.595h6.943v1h-6.943zM30.857 89.7h14.657v1H30.857zm0 1.594h14.657v1H30.857zm0 1.595h14.657v1H30.857z"/><path fill="#E6E8EC" d="M30.857 93.686h13.886v1H30.857zm0 1.594h14.657v1H30.857zm0 1.594h14.657v1H30.857z"/><path d="M189.802 73.41s-7.614 1.178-9.202.832l-4.23-4.47s-4.02 3.412 2.327 5.645l11.846 1.529-.74-3.535z" fill="#FDC2CC"/><path d="M189.802 73.41s-7.614 1.178-9.202.832l-4.23-4.47s-4.02 3.412 2.327 5.645l11.846 1.529-.74-3.535z" fill="#000" opacity=".05"/><path fill="url(#f)" d="M155.057 57.017h36.257v27.9h-36.257z"/><path fill="#FFF" d="M156.6 57.814h33.943v27.103H156.6z"/><path fill="#6C63FF" opacity=".2" d="M159.686 60.206h11.571v7.174h-11.571z"/><path fill="#E6E8EC" d="M173.571 60.206h13.886V61.8h-13.886zm0 2.391H183.6v1.594h-10.029zm0 2.392h13.886v1.594h-13.886zm-13.885 3.188h27.771v1.594h-27.771zm0 2.392h27.771v1.594h-27.771zm0 2.391h27.771v1.594h-27.771zm0 3.189h25.457v1.594h-25.457zm0 2.391h27.771v1.594h-27.771zm0 2.391h27.771v1.594h-27.771z"/></g></svg>