<svg width="231" height="144" xmlns="http://www.w3.org/2000/svg"><g fill="none" fill-rule="evenodd"><ellipse fill="#6C63FF" fill-rule="nonzero" opacity=".1" cx="48" cy="140.5" rx="30" ry="2.5"/><path d="M231 84.135c.012 7.027-1.812 13.922-5.274 19.932 0 7.35-3.26 14.013-8.546 18.869a29.327 29.327 0 0 1-4.256 3.244c-.06.04-.123.078-.186.117l-.341.212-.107.066c-5.005 2.934-10.646 4.458-16.376 4.424H43.852c-1.212 0-2.413-.05-3.603-.152a40.897 40.897 0 0 1-12.329-3.003 38.89 38.89 0 0 1-3.96-1.921 37.809 37.809 0 0 1-6.958-4.966C10.137 114.75 5.88 106.177 5.88 96.708 2.027 90.47-.016 83.188 0 75.75c0-21.049 16-38.113 35.74-38.113.606 0 1.212.02 1.818.053.087 0 .171 0 .258.013 3.328-5.964 7.776-11.444 13.125-16.267C65.534 8.293 86.853 0 110.601 0c19.954 0 38.194 5.85 52.165 15.514 5.293-3.143 11.27-4.79 17.35-4.78 19.735 0 35.74 17.065 35.74 38.114a41.259 41.259 0 0 1-.202 3.987c9.654 7.186 15.379 18.862 15.346 31.3z" fill="#6C63FF" fill-rule="nonzero" opacity=".1"/><path d="M193 24.96v103.071a4.094 4.094 0 0 1-1.087 2.806A3.61 3.61 0 0 1 189.28 132H40.72c-.347 0-.693-.052-1.026-.155-1.599-.486-2.7-2.044-2.694-3.814V37.468c.087 0 .172 0 .259.013C40.589 31.439 45.04 25.887 50.393 21H189.28a3.61 3.61 0 0 1 2.63 1.16 4.093 4.093 0 0 1 1.09 2.8z" fill="#FFF" fill-rule="nonzero"/><path d="M53 51h132M53 77h132M53 103h132M53 129h132" stroke="#3F3D56" opacity=".7" stroke-linecap="round"/><ellipse fill="#6C63FF" fill-rule="nonzero" opacity=".1" cx="195" cy="141.5" rx="30" ry="2.5"/><rect fill="#3F3D56" fill-rule="nonzero" x="105" y="35" width="28" height="7" rx="3.5"/><rect fill="#D1D1D1" fill-rule="nonzero" opacity=".1" x="106" y="36" width="24" height="5" rx="2.5"/><rect fill="#6C63FF" fill-rule="nonzero" x="120" y="36" width="8" height="5" rx="2.5"/><circle fill="#FFF" fill-rule="nonzero" cx="125" cy="38" r="1"/><rect fill="#3F3D56" fill-rule="nonzero" x="105" y="86" width="28" height="7" rx="3.5"/><rect fill="#000" fill-rule="nonzero" opacity=".1" x="106" y="87" width="24" height="5" rx="2.5"/><rect fill="#6C63FF" fill-rule="nonzero" x="123" y="87" width="8" height="5" rx="2.5"/><circle fill="#FFF" fill-rule="nonzero" cx="128" cy="89" r="1"/><rect fill="#3F3D56" fill-rule="nonzero" x="105" y="111" width="28" height="7" rx="3.5"/><rect fill="#000" fill-rule="nonzero" opacity=".1" x="106" y="112" width="24" height="5" rx="2.5"/><rect fill="#6C63FF" fill-rule="nonzero" x="124" y="112" width="8" height="5" rx="2.5"/><circle fill="#FFF" fill-rule="nonzero" cx="129" cy="115" r="1"/><rect fill="#3F3D56" fill-rule="nonzero" x="105" y="61" width="28" height="7" rx="3.5"/><rect fill="#6C63FF" fill-rule="nonzero" transform="rotate(180 110 64.5)" x="106" y="62" width="8" height="5" rx="2.5"/><circle fill="#FFF" fill-rule="nonzero" cx="109" cy="65" r="1"/><path d="M76 39.002a9 9 0 0 1-4.387 7.73l-.123.073-.231.128-.22.115-.035.018a8.774 8.774 0 0 1-1.85.676c-.436.106-.88.18-1.327.22a9.016 9.016 0 0 1-1.813-.016h-.058a6.837 6.837 0 0 1-.339-.044 9.309 9.309 0 0 1-1.064-.231l-.174-.052-.154-.048-.05-.017a8.883 8.883 0 0 1-2.383-1.208l-.023-.016-.016-.011-.164-.12-.125-.097a8.814 8.814 0 0 1-1.287-1.233A9 9 0 1 1 76 39.002zM76 64a8.964 8.964 0 0 1-1.605 5.13 8.355 8.355 0 0 1-.882 1.09l-.098.104c-.1.101-.201.191-.306.295a.345.345 0 0 1-.039.036c-.048.044-.097.09-.15.132a8.77 8.77 0 0 1-1.307.954l-.123.073-.231.128-.157.083-.063.032-.035.018a2.63 2.63 0 0 1-.191.086c-.033.017-.066.03-.098.046l-.192.08c-.168.073-.34.142-.515.203l-.233.079h-.027a.327.327 0 0 1-.058.017l-.044.015-.13.039-.044.013-.055.016-.08.02a.3.3 0 0 1-.056.016l-.136.036c-.1.025-.201.048-.303.067-.338.072-.68.123-1.024.154-.26.023-.521.036-.787.038h-.062c-.252 0-.5-.011-.746-.033l-.219-.02h-.092l-.304-.04-.243-.043-.062-.012a5.02 5.02 0 0 1-.337-.072.061.061 0 0 1-.026 0 6.657 6.657 0 0 1-.397-.1l-.174-.052-.153-.048-.05-.017a9.189 9.189 0 0 1-1.515-.663l-.088-.05-.13-.074-.07-.042a9.974 9.974 0 0 1-.575-.384l-.023-.015-.016-.011-.164-.121-.125-.096a8.817 8.817 0 0 1-1.287-1.234 9.008 9.008 0 0 1-.732-10.756A8.998 8.998 0 0 1 76 64zm0 24.03a8.947 8.947 0 0 1-1.605 5.125 8.347 8.347 0 0 1-.883 1.089l-.097.103c-.1.102-.201.192-.307.295a.345.345 0 0 1-.038.036 8.77 8.77 0 0 1-1.457 1.085l-.123.073-.231.129-.113.059h-.014l-.03.017-.064.033-.034.017-.191.086-.098.046-.192.08-.272.113-.143.054-.098.036-.233.079h-.027l-.058.017-.044.015-.13.039-.044.013h-.056l-.08.021a.3.3 0 0 1-.055.015l-.136.037a8.746 8.746 0 0 1-1.327.22c-.26.023-.521.036-.787.038h-.062c-.253 0-.5-.011-.747-.033l-.218-.02h-.092c-.092 0-.191-.024-.276-.037h-.028l-.243-.042-.062-.012a5.025 5.025 0 0 1-.337-.072.061.061 0 0 1-.027 0 6.663 6.663 0 0 1-.396-.1l-.174-.051-.153-.048-.05-.018-.14-.047-.098-.035a3.915 3.915 0 0 1-.208-.08l-.071-.029-.09-.036a8.792 8.792 0 0 1-.896-.43l-.088-.05-.13-.075-.071-.042a3.229 3.229 0 0 1-.286-.192 6.479 6.479 0 0 1-.28-.191l-.022-.015-.016-.012-.164-.12-.125-.096a8.812 8.812 0 0 1-1.287-1.233 8.991 8.991 0 0 1-.76-10.762A9.002 9.002 0 0 1 76 88.03zm0 26.006a8.954 8.954 0 0 1-1.605 5.127 8.35 8.35 0 0 1-.879 1.084l-.026.029-.071.074c-.1.102-.201.192-.307.295a.345.345 0 0 1-.038.036c-.048.044-.098.09-.15.133a6.993 6.993 0 0 1-.624.5l-.038.026-.078.056a8.994 8.994 0 0 1-.567.371l-.07.042-.053.03-.232.129-.112.06h-.014l-.03.017-.064.032-.034.017-.192.087-.097.045-.192.08-.272.114-.143.053-.098.037-.038.013-.192.065h-.027l-.057.018-.044.015-.052.015-.078.023-.044.014h-.056l-.08.02a.3.3 0 0 1-.056.016l-.136.036a8.743 8.743 0 0 1-1.1.197h-.035l-.192.02c-.26.023-.52.036-.787.038h-.218c-.192 0-.395-.013-.59-.03h-.057l-.161-.016h-.092l-.192-.023-.092-.013h-.028l-.243-.042-.062-.012-.16-.03-.068-.016-.109-.027a.061.061 0 0 1-.027 0 6.66 6.66 0 0 1-.396-.1l-.069-.02h-.025l-.08-.023-.075-.023-.078-.025-.05-.017-.14-.048-.098-.035-.09-.04-.116-.046-.071-.029-.09-.036a8.79 8.79 0 0 1-.293-.126 6.449 6.449 0 0 1-.446-.222 2.448 2.448 0 0 1-.157-.083l-.04-.023-.047-.025-.13-.074-.07-.042c-.096-.06-.192-.12-.286-.192a6.478 6.478 0 0 1-.28-.191l-.023-.016-.015-.011-.078-.058-.087-.063-.015-.011c-.036-.029-.075-.056-.109-.084a8.814 8.814 0 0 1-1.287-1.233 8.998 8.998 0 0 1 9.358-14.523A8.999 8.999 0 0 1 76 114.036z" fill="#604CFF" fill-rule="nonzero"/><path d="M173.876 35.843l-.79-.729a.435.435 0 0 0-.296-.114.435.435 0 0 0-.296.114l-4.91 4.496-2.079-1.933a.43.43 0 0 0-.296-.115.43.43 0 0 0-.296.115l-.79.73a.372.372 0 0 0-.123.273c0 .103.044.2.123.273l3.16 2.934a.437.437 0 0 0 .296.113c.112 0 .218-.04.297-.113l5.992-5.49a.372.372 0 0 0 .132-.275.37.37 0 0 0-.124-.279zm.002 22.999l-.79-.728a.436.436 0 0 0-.297-.114.436.436 0 0 0-.297.114l-4.906 4.498-2.08-1.93a.431.431 0 0 0-.297-.116.431.431 0 0 0-.297.116l-.791.728a.371.371 0 0 0-.123.273c0 .103.044.201.123.274l3.164 2.93a.438.438 0 0 0 .297.113c.11 0 .218-.04.296-.113l5.994-5.498a.37.37 0 0 0 .126-.273.37.37 0 0 0-.122-.274zm-.003 53.001l-.79-.73a.437.437 0 0 0-.296-.113.437.437 0 0 0-.296.113l-4.91 4.497-2.077-1.933a.435.435 0 0 0-.296-.114.435.435 0 0 0-.296.114l-.79.73a.37.37 0 0 0-.124.273.37.37 0 0 0 .124.273l3.16 2.934c.163.15.428.15.592 0l5.992-5.492c.083-.07.13-.17.132-.274a.367.367 0 0 0-.125-.278z" fill="#3ACC6C" fill-rule="nonzero"/><path d="M194.988 143c-.06-.309-1.437-7.636 2.706-17.33 1.621-3.792 1.487-7.06-.394-9.71a9.354 9.354 0 0 0-3.3-2.867l.488-1.093a10.52 10.52 0 0 1 3.784 3.262c1.472 2.072 2.757 5.643.52 10.886-3.998 9.363-2.64 16.559-2.64 16.63l-1.164.222z" fill="#6C63FF" fill-rule="nonzero"/><path d="M200.92 125.068c1.657-.07 3.035-.146 3.079.107.044.253-1.262.738-2.918.808-1.656.07-3.036-.08-3.08-.332-.044-.253 1.262-.514 2.918-.583z" fill="#6C63FF" fill-rule="nonzero"/><path d="M200.92 125.068c1.657-.07 3.035-.146 3.079.107.044.253-1.262.738-2.918.808-1.656.07-3.036-.08-3.08-.332-.044-.253 1.262-.514 2.918-.583z" fill="#000" fill-rule="nonzero" opacity=".1"/><path d="M200.93 125.097c1.657-.076 3.031-.195 3.07.049.037.244-1.274.756-2.93.833-1.657.076-3.031-.059-3.07-.301-.037-.243 1.274-.503 2.93-.58z" fill="#6C63FF" fill-rule="nonzero"/><path d="M198 125.497a49.454 49.454 0 0 0 4.637-.165c.454-.034.909-.301 1.363-.332" fill="#407D3B" fill-rule="nonzero" opacity=".3"/><path d="M197.92 133.067c1.655-.069 3.035-.145 3.079.107.044.252-1.262.74-2.92.809-1.657.07-3.032-.08-3.078-.332-.046-.253 1.264-.515 2.92-.584z" fill="#6C63FF" fill-rule="nonzero"/><path d="M197.92 133.067c1.655-.069 3.035-.145 3.079.107.044.252-1.262.74-2.92.809-1.657.07-3.032-.08-3.078-.332-.046-.253 1.264-.515 2.92-.584z" fill="#000" fill-rule="nonzero" opacity=".1"/><path d="M197.925 133.097c1.66-.076 3.036-.195 3.074.048.038.243-1.275.757-2.924.834-1.648.076-3.036-.059-3.074-.301-.038-.243 1.264-.504 2.924-.58z" fill="#6C63FF" fill-rule="nonzero"/><path d="M195 133.497a50 50 0 0 0 4.637-.165c.454-.034.909-.301 1.363-.332" fill="#407D3B" fill-rule="nonzero" opacity=".3"/><path d="M194.751 123.54c-1.402-.386-2.56-.73-2.73-.42-.17.308.712 1.156 2.113 1.543 1.4.388 2.677.45 2.847.14.17-.308-.829-.875-2.23-1.263z" fill="#6C63FF" fill-rule="nonzero"/><path d="M194.751 123.54c-1.402-.386-2.56-.73-2.73-.42-.17.308.712 1.156 2.113 1.543 1.4.388 2.677.45 2.847.14.17-.308-.829-.875-2.23-1.263z" fill="#000" fill-rule="nonzero" opacity=".1"/><path d="M194.71 123.61c-1.405-.398-2.545-.796-2.694-.516-.149.28.751 1.13 2.156 1.528 1.405.4 2.665.498 2.814.22.148-.28-.868-.838-2.277-1.231z" fill="#6C63FF" fill-rule="nonzero"/><path d="M197 124a46.712 46.712 0 0 1-3.363-.493c-.208-.038-.415-.078-.622-.117-.38-.073-.637-.316-1.015-.39" fill="#407D3B" fill-rule="nonzero" opacity=".3"/><path d="M191.751 131.541c-1.402-.387-2.56-.73-2.73-.42-.17.31.712 1.155 2.115 1.542 1.403.388 2.675.45 2.845.14.17-.308-.829-.876-2.23-1.262z" fill="#6C63FF" fill-rule="nonzero"/><path d="M191.751 131.541c-1.402-.387-2.56-.73-2.73-.42-.17.31.712 1.155 2.115 1.542 1.403.388 2.675.45 2.845.14.17-.308-.829-.876-2.23-1.262z" fill="#000" fill-rule="nonzero" opacity=".1"/><path d="M191.71 131.61c-1.405-.4-2.545-.795-2.694-.517-.149.279.751 1.129 2.156 1.53 1.405.4 2.665.497 2.814.217.148-.28-.872-.83-2.277-1.23z" fill="#6C63FF" fill-rule="nonzero"/><path d="M194 132a47.262 47.262 0 0 1-3.985-.611c-.378-.073-.635-.316-1.015-.389" fill="#407D3B" fill-rule="nonzero" opacity=".3"/><path d="M191.792 136.168c-1.597.213-2.942.376-2.778.58.163.202 1.77.365 3.37.152 1.602-.213 2.759-.55 2.602-.754-.157-.204-1.597-.192-3.194.022z" fill="#6C63FF" fill-rule="nonzero"/><path d="M191.792 136.168c-1.597.213-2.942.376-2.778.58.163.202 1.77.365 3.37.152 1.602-.213 2.759-.55 2.602-.754-.157-.204-1.597-.192-3.194.022z" fill="#000" fill-rule="nonzero" opacity=".1"/><path d="M191.833 136.195c-1.592.23-2.956.38-2.824.571.132.192 1.741.35 3.342.12 1.6-.23 2.78-.573 2.637-.763-.143-.19-1.555-.155-3.155.072z" fill="#6C63FF" fill-rule="nonzero"/><path d="M195 136a34.15 34.15 0 0 1-3.733.863l-.725.121c-.46.074-1.09-.138-1.542-.066" fill="#407D3B" fill-rule="nonzero" opacity=".3"/><ellipse fill="#6C63FF" fill-rule="nonzero" transform="rotate(-76.34 198.5 113)" cx="198.5" cy="113" rx="2.5" ry="4"/><ellipse fill="#000" fill-rule="nonzero" opacity=".1" transform="rotate(-76.34 198.5 113)" cx="198.5" cy="113" rx="2.5" ry="4"/><ellipse fill="#6C63FF" fill-rule="nonzero" transform="rotate(-76.34 200.5 113)" cx="200.5" cy="113" rx="2.5" ry="4"/><path d="M195 112c1.427.4 2.937.672 4.486.81.294.027.587.049.874.07l1.64.12" fill="#407D3B" fill-rule="nonzero" opacity=".3"/><ellipse fill="#6C63FF" fill-rule="nonzero" transform="rotate(-77.24 195 107.5)" cx="195" cy="107.5" rx="4" ry="2.5"/><ellipse fill="#000" fill-rule="nonzero" opacity=".1" transform="rotate(-77.24 195 107.5)" cx="195" cy="107.5" rx="4" ry="2.5"/><ellipse fill="#6C63FF" fill-rule="nonzero" transform="rotate(-77.24 195 107.5)" cx="195" cy="107.5" rx="4" ry="2.5"/><path d="M194 111c.411-1.637.687-3.365.82-5.134.025-.332.045-.668.064-.995L195 103" fill="#407D3B" fill-rule="nonzero" opacity=".3"/><ellipse fill="#6C63FF" fill-rule="nonzero" transform="rotate(-77.24 193 116.5)" cx="193" cy="116.5" rx="4" ry="2.5"/><ellipse fill="#000" fill-rule="nonzero" opacity=".1" transform="rotate(-77.24 193 116.5)" cx="193" cy="116.5" rx="4" ry="2.5"/><ellipse fill="#6C63FF" fill-rule="nonzero" transform="rotate(-77.24 193 116.5)" cx="193" cy="116.5" rx="4" ry="2.5"/><path d="M192 120a30.52 30.52 0 0 0 .819-5.134c.024-.332.045-.668.065-.995L193 112" fill="#407D3B" fill-rule="nonzero" opacity=".3"/><ellipse fill="#6C63FF" fill-rule="nonzero" transform="rotate(-76.34 188.5 110)" cx="188.5" cy="110" rx="2.5" ry="4"/><ellipse fill="#000" fill-rule="nonzero" opacity=".1" transform="rotate(-76.34 188.5 110)" cx="188.5" cy="110" rx="2.5" ry="4"/><ellipse fill="#6C63FF" fill-rule="nonzero" transform="rotate(-76.34 188.5 110)" cx="188.5" cy="110" rx="2.5" ry="4"/><path d="M185 109c1.427.4 2.937.672 4.486.811.291.026.585.048.873.07L192 110" fill="#407D3B" fill-rule="nonzero" opacity=".3"/><ellipse fill="#6C63FF" fill-rule="nonzero" transform="rotate(-37.18 195 114.5)" cx="195" cy="114.5" rx="1" ry="3.5"/><ellipse fill="#000" fill-rule="nonzero" opacity=".1" transform="rotate(-37.18 195 114.5)" cx="195" cy="114.5" rx="1" ry="3.5"/><ellipse fill="#6C63FF" fill-rule="nonzero" transform="rotate(-37.18 195 115.5)" cx="195" cy="115.5" rx="1" ry="3.5"/><path d="M194 112a17.767 17.767 0 0 0 3.005 4.068c.231.23.462.455.694.68L199 118" fill="#407D3B" fill-rule="nonzero" opacity=".3"/><ellipse fill="#6C63FF" fill-rule="nonzero" transform="rotate(-36.87 190 109.5)" cx="190" cy="109.5" rx="1" ry="3.5"/><ellipse fill="#000" fill-rule="nonzero" opacity=".1" transform="rotate(-36.87 190 109.5)" cx="190" cy="109.5" rx="1" ry="3.5"/><ellipse fill="#6C63FF" fill-rule="nonzero" transform="rotate(-37.18 190 108.5)" cx="190" cy="108.5" rx="1" ry="3.5"/><path d="M189 106a17.7 17.7 0 0 0 3.005 4.068c.231.232.462.455.694.68L194 112" fill="#407D3B" fill-rule="nonzero" opacity=".3"/><ellipse fill="#6C63FF" fill-rule="nonzero" transform="rotate(-37.19 197 110)" cx="197" cy="110" rx="3" ry="1"/><ellipse fill="#000" fill-rule="nonzero" opacity=".1" transform="rotate(-37.19 197 110)" cx="197" cy="110" rx="3" ry="1"/><ellipse fill="#6C63FF" fill-rule="nonzero" transform="rotate(-37.19 197 110)" cx="197" cy="110" rx="3" ry="1"/><path d="M199 107a15.246 15.246 0 0 0-3.382 3.005c-.192.225-.377.458-.565.691L194 112" fill="#407D3B" fill-rule="nonzero" opacity=".3"/><ellipse fill="#6C63FF" fill-rule="nonzero" transform="rotate(-29.9 191 113)" cx="191" cy="113" rx="3" ry="1"/><ellipse fill="#000" fill-rule="nonzero" opacity=".1" transform="rotate(-29.9 191 113)" cx="191" cy="113" rx="3" ry="1"/><ellipse fill="#6C63FF" fill-rule="nonzero" transform="rotate(-29.9 191 113)" cx="191" cy="113" rx="3" ry="1"/><path d="M189 114a19.681 19.681 0 0 1 3.769-1.432c.256-.07.517-.136.776-.2L195 112" fill="#407D3B" fill-rule="nonzero" opacity=".3"/><ellipse fill="#6C63FF" fill-rule="nonzero" transform="rotate(-37.72 192.5 110)" cx="192.5" cy="110" rx="1" ry="1"/><ellipse fill="#000" fill-rule="nonzero" opacity=".1" transform="rotate(-37.72 192.5 110)" cx="192.5" cy="110" rx="1" ry="1"/><ellipse fill="#6C63FF" fill-rule="nonzero" transform="rotate(-37.72 192.5 110)" cx="192.5" cy="110" rx="1" ry="1"/><path d="M192 111a3.35 3.35 0 0 1 .805.753L193 112" fill="#407D3B" fill-rule="nonzero" opacity=".3"/><ellipse fill="#6C63FF" fill-rule="nonzero" transform="rotate(-37.72 194.5 113)" cx="194.5" cy="113" rx="1" ry="1"/><ellipse fill="#000" fill-rule="nonzero" opacity=".1" transform="rotate(-37.72 194.5 113)" cx="194.5" cy="113" rx="1" ry="1"/><ellipse fill="#6C63FF" fill-rule="nonzero" transform="rotate(-37.72 194.5 113)" cx="194.5" cy="113" rx="1" ry="1"/><path d="M194 112a3.325 3.325 0 0 1 .805.753L195 113" fill="#407D3B" fill-rule="nonzero" opacity=".3"/><circle fill="#6C63FF" fill-rule="nonzero" cx="194.25" cy="112.25" r="1"/><circle fill="#407D3B" fill-rule="nonzero" opacity=".3" cx="194.25" cy="112.25" r="1"/></g></svg>