<svg width="210" height="139" xmlns="http://www.w3.org/2000/svg"><g fill="none"><path d="M122.01 22.918c-13.461-.462-26.283-4.761-38.527-9.464C71.239 8.752 59.111 3.542 45.97 1.05 37.52-.553 27.853-.78 21.043 3.702c-6.553 4.312-8.67 11.756-9.809 18.664-.856 5.197-1.359 10.666.987 15.532 1.629 3.377 4.522 6.216 6.516 9.45 6.96 11.26 2.048 25.14-5.503 36.134C9.696 88.637 5.589 93.557 2.86 99.045c-2.73 5.489-3.988 11.778-1.588 17.386 2.368 5.55 8.005 9.718 14.125 12.651 12.406 5.945 27.037 7.65 41.304 8.615 31.581 2.136 63.333 1.212 94.998.285 11.718-.344 23.49-.69 35.017-2.483 6.403-.995 13.012-2.578 17.66-6.387 5.9-4.84 7.363-13.038 3.41-19.108-6.632-10.182-24.968-12.704-29.602-23.637-2.552-6.013.069-12.713 3.777-18.29 7.954-11.968 21.285-22.463 21.987-36.14.484-9.39-5.926-18.803-15.835-23.248-10.389-4.658-24.79-4.072-32.456 3.64-7.891 7.941-21.76 10.996-33.646 10.59z" fill="#6C63FF" opacity=".1"/><path d="M167 126.182a3.9 3.9 0 0 0-1.562-.163c-.642.068-.55 1.024.093.98a4.7 4.7 0 0 0 .95-.172l.519-.645zm.622-.182c.23.469.358.98.378 1.5.02.635-.948.68-.992.047a4.578 4.578 0 0 1 .042-.95l.572-.597zm2.378-2.174s-.437-1.177-3.11-.72c-1.209.205-1.176 1.694.035 1.851h.052c1.764.211 2.377-.39 3.023-1.131z" fill="#6C63FF"/><path d="M169.733 124s1.192.113 1.266 2.85c.035 1.233-1.372 1.607-1.75.463 0-.017-.01-.033-.015-.05-.527-1.67-.078-2.432.499-3.263zm3.267-4.937c-.213-.937-.976-1.699-1.996-1.99-1.873-.528-2.862 1.974-1.033 2.61a6.49 6.49 0 0 0 2.369.307l.66-.927zm1-5.158s-.653-1.564-2.347-1.877c-1.796-.333-2.34 2.399-.565 2.835.796.175 1.62.182 2.418.02l.494-.978zm3-3.582c-.57-.674-1.478-1.145-2.517-1.304-1.573-.222-2.103 1.551-.558 1.854.97.18 1.984.168 2.948-.03l.127-.52zm1-5.985c-.523-.61-1.336-1.068-2.293-1.29-1.637-.357-2.446 1.401-.819 1.784a6.499 6.499 0 0 0 2.971-.008l.141-.486zm0-3.297s-.646-1.824-1.962-2.788c-1.466-1.076-2.862 1.555-1.453 2.74.869.732 1.981 1.238 3.281.9l.134-.852zm0-5.111s-.693-1.841-2.021-2.722c-1.486-.972-2.778 1.715-1.379 2.874.916.757 2.059 1.247 3.273.656l.127-.807zm1-4.045a11.38 11.38 0 0 0-2.092-2.585c-1.154-1.025-2.616.82-1.522 1.914 1.01 1.006 2.266 1.85 3.565 1.782l.049-1.111zm-1.106-5.753a14.768 14.768 0 0 0-2.286-2.866c-.873-.817-2.164.429-1.349 1.29.943.982 2.214 2 3.741 2.444l-.106-.868zm-.143-4.427a14.428 14.428 0 0 0-1.98-2.404c-.955-.916-2.394.463-1.478 1.415.973 1.013 2.231 1.961 3.707 2.284l-.249-1.295zm-1.762-4.471a20.622 20.622 0 0 0-1.68-1.996c-.674-.695-1.751.282-1.116 1.015.747.861 1.705 1.624 2.807 1.747l-.011-.766zM176 72.52a26.041 26.041 0 0 0-1.72-3.189c-.538-.83-1.659.059-1.151.911.663 1.118 1.585 2.225 2.795 2.758l.076-.48zm-1-6.251s-.356-.488-.865-1.056c-.47-.524-1.463.017-1.027.56.49.607 1.105 1.124 1.82 1.227l.072-.731zm-.124-4.447l-.608-2.413c-.161-.638-1.36-.486-1.262.154.217 1.29.776 2.586 1.994 3.437l-.124-1.178zM175 55.23c-.102-.175-.37-.268-.623-.215-.253.052-.412.232-.37.42.118.532.297 1.055.535 1.565l.458-1.77zm-1.425 63.898c1.017-.289 2.136-.081 2.924.543 1.43 1.151-.504 3.083-2.028 2.02a5.25 5.25 0 0 1-1.471-1.625l.575-.938zm1.935-5.052s1.696-.473 3.009.945c1.391 1.505-.532 3.968-1.998 2.559a7.13 7.13 0 0 1-1.521-2.33l.51-1.174z" fill="#6C63FF"/><path d="M176.128 110.568c.839-.482 1.886-.668 2.9-.517 1.527.245 1.147 2.097-.39 1.94a6.527 6.527 0 0 1-2.638-.888l.128-.535zm2-5.931c.78-.455 1.742-.679 2.714-.63 1.658.112 1.48 2.072-.18 1.99-.982-.047-1.917-.344-2.662-.844l.128-.516zm-.128-3.622s.863-1.357 2.24-1.912c1.529-.617 2.51 1.718 1.025 2.437-.933.448-2.057.675-3.251.182l-.014-.707zm1-6.045s.86-1.359 2.234-1.877c1.533-.579 2.512 1.705 1.04 2.438-.965.478-2.122.716-3.234.096l-.04-.658zm-1-3.91c.41-.945.98-1.832 1.694-2.633 1.02-1.111 3.004.166 2.057 1.325-.87 1.065-2.032 2.041-3.464 2.248l-.287-.94zm0-4.973a16.36 16.36 0 0 1 1.308-3.598c.579-1.083 2.105-.186 1.586.932-.593 1.28-1.482 2.682-2.762 3.579l-.132-.913zm-1-5.23a12.43 12.43 0 0 1 1.33-2.465c.663-.938 2.133-.02 1.526.95-.66 1.057-1.59 2.12-2.838 2.658L177 80.857zm-1-3.612c.166-.916.38-1.82.643-2.704.298-.984 1.577-.509 1.324.493-.297 1.178-.807 2.353-1.682 2.966l-.285-.755zm0-4.643c.222-1.081.51-2.141.863-3.17.3-.846 1.364-.331 1.093.528-.35 1.125-.914 2.299-1.81 3.04l-.146-.398zm-1-5.492s.17-.738.477-1.632c.285-.823 1.733-.5 1.497.335-.263.929-.72 1.803-1.513 2.187l-.461-.89zm.26-5.325l.798-2.43c.211-.647 1.092-.333.92.325-.345 1.312-.944 2.591-1.978 3.32l.26-1.215zm.894-6.442s.108-.097.274-.25c.339-.313.781.234.462.57A6.47 6.47 0 0 1 175 57l1.154-1.657zm.028-2.343a36.482 36.482 0 0 1 1.78-3.472.381.381 0 0 0-.1-.462.308.308 0 0 0-.432.05c-.525.788-1.04 1.94-1.43 3.632l.182.252z" fill="#6C63FF"/><path d="M175.551 67l.24-.02c-1.033-7.954-.597-12.859 1.209-13.81l-.13-.17c-1.914 1.012-2.368 5.852-1.319 14zm2.179 21l.27-.048a67.161 67.161 0 0 0-.349-2.403c-1.132-6.992-2.013-13.455-2.453-18.364L175 67c.442 4.918 1.245 11.605 2.385 18.606.128.792.245 1.6.346 2.394zm-14.471 44c.047-.039 4.932-3.786 9.222-10.973a46.406 46.406 0 0 0 5.428-13.568c1.355-5.978 1.393-12.939.416-19.459l-.286.23c2.2 14.632-1.997 25.993-5.914 32.561-4.247 7.122-9.075 10.83-9.125 10.867l.259.342z" fill="#444053"/><ellipse fill="#6C63FF" cx="35.5" cy="129" rx="12.5" ry="2"/><ellipse fill="#3F3D56" cx="35" cy="128" rx="1" ry="2"/><ellipse fill="#3F3D56" cx="35" cy="126" rx="1" ry="2"/><ellipse fill="#3F3D56" cx="35" cy="125" rx="1" ry="2"/><ellipse fill="#3F3D56" cx="35" cy="122" rx="1" ry="2"/><ellipse fill="#3F3D56" cx="35" cy="119" rx="1" ry="2"/><ellipse fill="#3F3D56" cx="35" cy="117" rx="1" ry="2"/><ellipse fill="#3F3D56" cx="35" cy="115" rx="1" ry="2"/><path d="M42.043 98.424l-3.836-.623 4.145.03a6.874 6.874 0 0 0 .134-5.488l-5.565 2.86 5.131-3.733a7.008 7.008 0 0 0-6.392-3.462 6.993 6.993 0 0 0-6.03 4.048 6.876 6.876 0 0 0 .874 7.165c-.31.392-.577.816-.797 1.264l4.98 2.563-5.306-1.766a6.88 6.88 0 0 0 1.13 6.505 6.883 6.883 0 0 0 .75 9.374 7.04 7.04 0 0 0 9.491 0 6.883 6.883 0 0 0 .75-9.374 6.873 6.873 0 0 0 0-8.566 7.71 7.71 0 0 0 .54-.797z" fill="#6C63FF"/><path d="M29.002 103.098a6.441 6.441 0 0 0 1.497 4.118c-2.258 2.731-1.931 6.656.75 9.015 2.683 2.359 6.82 2.359 9.501 0 2.682-2.359 3.009-6.284.75-9.015.94-1.133-12.498-4.866-12.498-4.118z" fill="#000" opacity=".1"/><path d="M43 48v82.133c0 .76.3 1.49.836 2.027.535.538 1.26.84 2.017.84h117.294a2.86 2.86 0 0 0 2.853-2.867V48H43z" fill="#FFF"/><rect fill="#000" opacity=".1" x="54" y="56" width="30" height="18" rx="2"/><rect fill="#000" opacity=".1" x="90" y="56" width="30" height="18" rx="2"/><rect fill="#6C63FF" x="55" y="57" width="28" height="16" rx="2"/><rect fill="#444053" opacity=".1" transform="rotate(-180 142.5 64)" x="128" y="56" width="29" height="16" rx="2"/><rect fill="#6C63FF" transform="rotate(-180 105 65)" x="91" y="57" width="28" height="16" rx="2"/><rect fill="#444053" opacity=".1" x="54" y="81" width="29" height="16" rx="2"/><rect fill="#444053" opacity=".1" transform="rotate(-180 142.5 89)" x="128" y="81" width="29" height="16" rx="2"/><rect fill="#444053" opacity=".1" transform="rotate(-180 104.5 89)" x="90" y="81" width="29" height="16" rx="2"/><rect fill="#444053" opacity=".1" x="54" y="104" width="29" height="16" rx="2"/><rect fill="#444053" opacity=".1" transform="rotate(-180 142.5 112)" x="128" y="104" width="29" height="16" rx="2"/><rect fill="#444053" opacity=".1" transform="rotate(-180 104.5 112)" x="90" y="104" width="29" height="16" rx="2"/><path d="M43 33.903V49h123V33.903c0-.77-.3-1.508-.835-2.053a2.83 2.83 0 0 0-2.018-.85H45.853a2.83 2.83 0 0 0-2.018.85A2.926 2.926 0 0 0 43 33.903zm30.44 4.466c-1.258 0-2.278-1.037-2.278-2.316s1.02-2.316 2.278-2.316 2.277 1.037 2.277 2.316c0 1.28-1.02 2.316-2.277 2.316zm62.12 0c-1.258 0-2.277-1.037-2.277-2.316s1.02-2.316 2.277-2.316c1.258 0 2.278 1.037 2.278 2.316 0 .615-.24 1.205-.668 1.639a2.259 2.259 0 0 1-1.613.677h.003z" fill="#6C63FF"/><path d="M73.502 34a2.5 2.5 0 1 0-.004 5 2.5 2.5 0 0 0 .004-5zm0 4.615a2.115 2.115 0 1 1 0-4.23 2.115 2.115 0 0 1 0 4.23zM135.5 34a2.5 2.5 0 1 0 0 5 2.5 2.5 0 0 0 0-5zm0 4.615a2.115 2.115 0 1 1 0-4.23 2.115 2.115 0 0 1 0 4.23z" fill="#000" opacity=".1"/><circle fill="#6C63FF" opacity=".1" cx="192.5" cy="79.5" r="3.5"/><circle fill="#6C63FF" opacity=".1" cx="203" cy="65" r="5"/><circle fill="#6C63FF" opacity=".1" cx="196" cy="88" r="5"/><circle fill="#6C63FF" opacity=".1" cx="6.5" cy="63.5" r="6.5"/><path d="M160 109s-1.506 1-1.506 1.748c0 .75-.383 7.488-.383 7.488v4.75s.25 2.498 0 3.121c-.25.624 0 3.495 0 3.87 0 .374.383-3.87.383-3.87v-4.5l.382-10.235L160 109z" fill="#000" opacity=".1"/><path d="M77.778 55.562l-1.41-1.35a.768.768 0 0 0-.532-.212c-.2 0-.392.076-.532.211l-8.857 8.358-3.746-3.594a.774.774 0 0 0-1.057 0l-1.425 1.343a.697.697 0 0 0 0 1.014l5.69 5.46a.782.782 0 0 0 1.061 0l10.808-10.217A.697.697 0 0 0 78 56.07c0-.19-.08-.373-.222-.507zm39 0l-1.41-1.35a.768.768 0 0 0-.532-.212c-.2 0-.392.076-.532.211l-8.857 8.358-3.746-3.594a.774.774 0 0 0-1.057 0l-1.425 1.343a.697.697 0 0 0 0 1.014l5.69 5.46a.782.782 0 0 0 1.061 0l10.808-10.217a.697.697 0 0 0 .222-.506c0-.19-.08-.373-.222-.507z" fill="#3ACC6C"/></g></svg>