<?xml version="1.0" encoding="UTF-8"?>
<svg width="231px" height="144px" viewBox="0 0 231 144" version="1.1" xmlns="http://www.w3.org/2000/svg" xmlns:xlink="http://www.w3.org/1999/xlink">
    <!-- Generator: Sketch 51.3 (57544) - http://www.bohemiancoding.com/sketch -->
    <title>undraw_following_q0cr</title>
    <desc>Created with Sketch.</desc>
    <defs></defs>
    <g id="Page-1" stroke="none" stroke-width="1" fill="none" fill-rule="evenodd">
        <g id="home" transform="translate(-812.000000, -755.000000)">
            <g id="undraw_following_q0cr" transform="translate(812.000000, 755.000000)">
                <ellipse id="Oval" fill="#6C63FF" fill-rule="nonzero" opacity="0.1" cx="48" cy="140.5" rx="30" ry="2.5"></ellipse>
                <path d="M230.999857,84.134764 C231.012329,91.1615523 229.187804,98.0567779 225.725631,104.067062 C225.725631,111.417468 222.466596,118.079968 217.180255,122.935653 C215.856978,124.149307 214.432371,125.235099 212.923721,126.179853 C212.863144,126.220193 212.800548,126.25841 212.737952,126.296627 C212.624875,126.366692 212.511799,126.436756 212.396702,126.508944 L212.289683,126.574762 C207.285021,129.509238 201.643859,131.033446 195.913738,130.999443 L43.8516807,130.999443 C42.6401434,130.999443 41.4393754,130.948487 40.2493766,130.846575 C36.0204197,130.496355 31.864847,129.484491 27.919966,127.844416 C27.1499668,127.524526 26.3947752,127.180572 25.6543914,126.812557 C25.3016994,126.638457 24.9523728,126.459403 24.6064117,126.275395 C24.3903542,126.160744 24.1742967,126.041847 23.9602585,125.922949 C21.4725748,124.544544 19.138748,122.8789 17.0019963,120.95686 C10.1366186,114.750841 5.88008444,106.17749 5.88008444,96.7081628 C2.02739659,90.4702321 -0.0156603368,83.1882599 9.03885974e-05,75.750375 C9.03885974e-05,54.701291 16.0004588,37.6373927 35.7404389,37.6373927 C36.3462075,37.6373927 36.9519761,37.6565012 37.5577447,37.6904719 C37.6445715,37.6904719 37.7293792,37.6904719 37.816206,37.7032109 C41.1438949,31.739233 45.5922558,26.2593374 50.9411927,21.4355005 C65.5341587,8.2930928 86.8531756,0 110.601325,0 C130.555343,0 148.795036,5.84932684 162.76608,15.5139859 C168.059193,12.3712387 174.036605,10.7246194 180.115293,10.7347356 C199.851234,10.7347356 215.855641,27.7986339 215.855641,48.8477179 C215.852703,50.1795618 215.785308,51.5103858 215.653718,52.8350267 C225.308131,60.0210321 231.033013,71.6974112 230.999857,84.134764 Z" id="Shape" fill="#6C63FF" fill-rule="nonzero" opacity="0.1"></path>
                <path d="M192.999991,24.9599836 L192.999991,128.03141 C193.002138,129.083153 192.611142,130.092602 191.913245,130.837105 C191.215348,131.581608 190.267885,132 189.279836,131.999997 L40.7201731,131.999997 C40.37283,132.000434 40.0271937,131.948288 39.6936447,131.845126 C38.0951016,131.358899 36.9948314,129.801104 37.0000183,128.03141 L37.0000183,82.0345113 C37.0000183,81.8000528 37.0000183,81.5677452 37.0000183,81.3354376 L37.0000183,37.4680253 C37.0869094,37.4680253 37.1717799,37.4680253 37.2586711,37.4809313 C40.5888259,31.4387836 45.0404832,25.8870629 50.3933838,21 L189.279836,21 C190.266483,21 191.212719,21.4172114 191.910383,22.1598524 C192.608047,22.9024933 192.999991,23.9097307 192.999991,24.9599836 Z" id="Shape" fill="#FFFFFF" fill-rule="nonzero"></path>
                <path d="M53,51 L185,51" id="Shape" stroke="#3F3D56" opacity="0.7" stroke-linecap="round"></path>
                <path d="M53,77 L185,77" id="Shape" stroke="#3F3D56" opacity="0.7" stroke-linecap="round"></path>
                <path d="M53,103 L185,103" id="Shape" stroke="#3F3D56" opacity="0.7" stroke-linecap="round"></path>
                <path d="M53,129 L185,129" id="Shape" stroke="#3F3D56" opacity="0.7" stroke-linecap="round"></path>
                <ellipse id="Oval" fill="#6C63FF" fill-rule="nonzero" opacity="0.1" cx="195" cy="141.5" rx="30" ry="2.5"></ellipse>
                <rect id="Rectangle-path" fill="#3F3D56" fill-rule="nonzero" x="105" y="35" width="28" height="7" rx="3.5"></rect>
                <rect id="Rectangle-path" fill="#D1D1D1" fill-rule="nonzero" opacity="0.1" x="106" y="36" width="24" height="5" rx="2.5"></rect>
                <rect id="Rectangle-path" fill="#6C63FF" fill-rule="nonzero" x="120" y="36" width="8" height="5" rx="2.5"></rect>
                <circle id="Oval" fill="#FFFFFF" fill-rule="nonzero" cx="125" cy="38" r="1"></circle>
                <rect id="Rectangle-path" fill="#3F3D56" fill-rule="nonzero" x="105" y="86" width="28" height="7" rx="3.5"></rect>
                <rect id="Rectangle-path" fill="#000000" fill-rule="nonzero" opacity="0.1" x="106" y="87" width="24" height="5" rx="2.5"></rect>
                <rect id="Rectangle-path" fill="#6C63FF" fill-rule="nonzero" x="123" y="87" width="8" height="5" rx="2.5"></rect>
                <circle id="Oval" fill="#FFFFFF" fill-rule="nonzero" cx="128" cy="89" r="1"></circle>
                <rect id="Rectangle-path" fill="#3F3D56" fill-rule="nonzero" x="105" y="111" width="28" height="7" rx="3.5"></rect>
                <rect id="Rectangle-path" fill="#000000" fill-rule="nonzero" opacity="0.1" x="106" y="112" width="24" height="5" rx="2.5"></rect>
                <rect id="Rectangle-path" fill="#6C63FF" fill-rule="nonzero" x="124" y="112" width="8" height="5" rx="2.5"></rect>
                <circle id="Oval" fill="#FFFFFF" fill-rule="nonzero" cx="129" cy="115" r="1"></circle>
                <rect id="Rectangle-path" fill="#3F3D56" fill-rule="nonzero" x="105" y="61" width="28" height="7" rx="3.5"></rect>
                <rect id="Rectangle-path" fill="#6C63FF" fill-rule="nonzero" transform="translate(110.000000, 64.500000) rotate(180.000000) translate(-110.000000, -64.500000) " x="106" y="62" width="8" height="5" rx="2.5"></rect>
                <circle id="Oval" fill="#FFFFFF" fill-rule="nonzero" cx="109" cy="65" r="1"></circle>
                <path d="M75.9999996,39.0024048 C76.0008892,42.1717627 74.3345185,45.107945 71.6129922,46.7324094 L71.4904394,46.8051714 L71.258738,46.9334623 L71.0385259,47.0483497 L71.0040579,47.0655828 C70.9121433,47.1115377 70.8183138,47.1555779 70.7225694,47.1977033 C70.4176474,47.3367559 70.1050084,47.4582249 69.7861894,47.5615132 C69.5774667,47.6285309 69.366829,47.6898041 69.1542765,47.7415034 C68.7181066,47.8481782 68.274508,47.9217875 67.8272594,47.9617042 C67.5553454,47.9865965 67.2815164,48 67.0038577,48 C66.6731445,47.9995871 66.3426843,47.9816907 66.0138608,47.9463859 L65.9564142,47.9463859 C65.8434359,47.9348972 65.7304575,47.9195788 65.6174791,47.9023457 C65.2583668,47.8459702 64.9028654,47.7686079 64.5528016,47.6706562 L64.3785468,47.6189569 L64.2253558,47.5710872 L64.1755688,47.5538541 C63.862751,47.4509888 63.5558953,47.3308099 63.2564227,47.1938737 C62.7418883,46.95907 62.2513024,46.6749937 61.7915337,46.345622 L61.7685551,46.3303037 L61.753236,46.3188149 L61.5885556,46.1981832 L61.4640879,46.1024437 C61.2208164,45.9130197 60.9881267,45.7103854 60.7670688,45.4954555 C60.560261,45.2963174 60.3636659,45.0876054 60.1772835,44.8693194 C57.5750073,41.8445111 57.2752137,37.4674378 59.4407767,34.1161052 C61.6063396,30.7647726 65.7201722,29.2394021 69.547284,30.3687072 C73.3743958,31.4980123 76.0009601,35.0123407 75.9999996,39.0024048 Z" id="Shape" fill="#604CFF" fill-rule="nonzero"></path>
                <path d="M75.9999888,63.9992178 C76.0023797,65.5099474 75.6229643,66.9967583 74.897014,68.3214325 C74.7449975,68.6000918 74.5775018,68.8700143 74.3953137,69.1299319 C74.2142936,69.396512 74.0180089,69.6523896 73.8074435,69.896282 C73.7955932,69.9123179 73.7821173,69.9270848 73.7672309,69.9403471 C73.6868056,70.0361409 73.6006357,70.1319347 73.5125509,70.2200649 L73.4148917,70.3235222 C73.3153176,70.4250636 73.2138286,70.5151097 73.1085098,70.618567 C73.0966934,70.6316632 73.0838899,70.6438328 73.0702121,70.6549686 C73.0223399,70.6990337 72.9725529,70.7450148 72.9208509,70.787164 C72.6523726,71.0232645 72.3697187,71.2427223 72.074471,71.4443092 C71.923195,71.5477665 71.770004,71.647392 71.6129833,71.7412699 L71.4904306,71.8140732 L71.2587293,71.9424368 L71.1017086,72.0248195 L71.0385173,72.0573893 L71.0040494,72.0746322 C70.942773,72.1052862 70.8789434,72.1340244 70.8125607,72.1608466 C70.7800076,72.1780895 70.7474545,72.1915006 70.7149015,72.2068276 L70.5234128,72.2872944 C70.3549028,72.3600976 70.182563,72.4290692 70.0083083,72.4903772 L69.7746921,72.5689281 L69.7478837,72.5689281 C69.7293023,72.5764219 69.7100728,72.5821937 69.6904371,72.5861709 L69.6463947,72.6014979 L69.5161824,72.6398154 L69.47214,72.6532266 L69.4166083,72.6685536 L69.336183,72.6896282 C69.3182055,72.6965039 69.2996096,72.7016364 69.2806513,72.7049552 L69.1446944,72.7413568 C69.0451203,72.7662632 68.9436313,72.7892537 68.8421423,72.8084125 C68.5040285,72.8799743 68.1619246,72.9311564 67.8176779,72.9616825 C67.5572533,72.984673 67.2968287,72.9980841 67.0306594,73 L66.9693831,73 C66.716618,73 66.4695976,72.9885047 66.2225772,72.9674301 L66.0042802,72.9463555 L65.9468336,72.9463555 L65.9123656,72.9463555 L65.6078986,72.9061221 L65.364708,72.8639729 L65.3034316,72.8524776 C65.1904533,72.831403 65.077475,72.8084125 64.9664116,72.7796743 C64.957585,72.7816541 64.9484298,72.7816541 64.9396032,72.7796743 C64.8055611,72.7509362 64.6734339,72.7164505 64.5432216,72.6800488 L64.3689669,72.6283202 L64.215776,72.5804233 L64.1659889,72.5631804 C63.8560129,72.4600479 63.5517525,72.3404553 63.2545029,72.2049117 C63.0489717,72.1103952 62.8479086,72.0088538 62.6513135,71.9002876 L62.5632288,71.8504748 L62.4330165,71.7757557 L62.3621656,71.7336064 C62.170677,71.6148221 61.9791883,71.4883744 61.7876996,71.3504314 L61.764721,71.3351044 L61.7494019,71.3236091 L61.5847216,71.202909 L61.460254,71.1071152 C61.2169826,70.9175837 60.984293,70.7148345 60.7632352,70.4997827 C60.5564275,70.3005317 60.3598324,70.0917013 60.1734501,69.8732915 C57.5742901,66.8463944 57.276359,62.4689528 59.4414028,59.1174664 C61.6064465,55.76598 65.7179775,54.2399713 69.5438582,55.3679057 C73.3697389,56.49584 75.9972764,60.0086402 75.9999888,63.9992178 Z" id="Shape" fill="#604CFF" fill-rule="nonzero"></path>
                <path d="M75.9999357,88.0297257 C76.0023266,89.5388683 75.6229111,91.0241172 74.8969607,92.3473999 C74.7449441,92.6257664 74.5774484,92.8954053 74.3952603,93.1550499 C74.2142402,93.42135 74.0179554,93.6769588 73.8073899,93.920595 C73.7955396,93.936614 73.7820638,93.9513654 73.7671773,93.9646138 C73.6867521,94.0603069 73.6005821,94.1560001 73.5124973,94.2440378 L73.4148381,94.3473863 C73.315264,94.4488211 73.2137749,94.5387726 73.1084561,94.6421212 C73.0966397,94.6552036 73.0838362,94.6673604 73.0701584,94.6784846 C73.0222862,94.7225034 72.9724992,94.7684361 72.9207972,94.8105411 C72.6523188,95.0463936 72.3696649,95.2656208 72.0744171,95.466996 C71.923141,95.5703446 71.76995,95.6698654 71.6129293,95.7636447 L71.4903765,95.8363715 L71.2586752,95.9646003 L71.1456968,96.02393 L71.1322926,96.02393 L71.1016544,96.0411548 L71.0384632,96.0736905 L71.0039952,96.0909152 L70.8125065,96.1770391 L70.7148472,96.2229718 L70.5233585,96.303354 L70.2514446,96.4162719 L70.107828,96.46986 L70.0101688,96.5062234 L69.7765526,96.5846918 L69.7497441,96.5846918 L69.6922975,96.6019166 L69.6482551,96.6172275 L69.5180428,96.6555047 L69.4740004,96.6689018 L69.4567664,96.6689018 L69.4414473,96.6689018 L69.4184687,96.6689018 L69.3380434,96.6899542 C69.3200659,96.6968227 69.3014699,96.7019499 69.2825117,96.7052651 L69.1465547,96.7416285 C69.0469806,96.7665088 68.9454915,96.7894751 68.8440025,96.8086137 C68.6793222,96.8430633 68.5127271,96.8736851 68.3461319,96.8985653 C68.1795367,96.9234455 67.9957075,96.9464118 67.8195379,96.9617227 C67.5591133,96.9846891 67.2986886,96.9980861 67.0325193,97 L66.9712429,97 C66.7184778,97 66.4714574,96.9885168 66.2244369,96.9674643 L66.0061398,96.9464118 L65.9486932,96.9464118 L65.9142252,96.9464118 C65.8223107,96.9464118 65.7227365,96.9234455 65.6384815,96.9100485 L65.6097582,96.9100485 L65.3665675,96.8679435 L65.3052911,96.8564603 C65.1923128,96.8354078 65.0793344,96.8124415 64.968271,96.7837335 C64.9594444,96.7857112 64.9502892,96.7857112 64.9414626,96.7837335 C64.8074205,96.7550256 64.6752933,96.7205761 64.5450809,96.6842127 L64.3708262,96.6325384 L64.2176352,96.5846918 L64.1678482,96.567467 L64.0280614,96.5196205 L63.9304022,96.4851709 C63.8595514,96.4602907 63.7906154,96.4334967 63.7216795,96.4047887 L63.6508287,96.3760808 L63.560829,96.3397174 C63.4612548,96.2988883 63.3635956,96.2567833 63.2678512,96.2134024 C63.06232,96.1202611 62.8612569,96.0188264 62.6646618,95.9090983 L62.576577,95.8593379 L62.4463647,95.7846972 L62.3755138,95.7425922 C62.2797695,95.6832625 62.1840251,95.6239327 62.0901957,95.551206 C61.9944513,95.4880485 61.8987069,95.424891 61.8106221,95.3598197 L61.7876435,95.3445088 L61.7723244,95.3330256 L61.6076441,95.2124523 L61.4831764,95.1167591 C61.239905,94.9274267 61.0072153,94.7248906 60.7861575,94.5100647 C60.5793497,94.311023 60.3827546,94.1024119 60.1963723,93.8842316 C57.5793726,90.8636657 57.2696321,86.479769 59.4359478,83.1216035 C61.6022636,79.7634379 65.7253208,78.2360316 69.5582055,79.3717645 C73.3910902,80.5074975 76.0149735,84.0341089 75.9999357,88.0297257 Z" id="Shape" fill="#604CFF" fill-rule="nonzero"></path>
                <path d="M75.9999259,114.035771 C76.0023168,115.545507 75.6229013,117.03134 74.896951,118.355143 C74.7449344,118.633619 74.5774386,118.903364 74.3952506,119.163111 C74.2142305,119.429516 74.0179457,119.685225 73.8073802,119.928957 C73.7973168,119.943534 73.7850418,119.956454 73.7709974,119.967249 C73.6905721,120.06298 73.6044022,120.158711 73.5163174,120.246783 L73.489509,120.275502 L73.4186582,120.350172 C73.3190841,120.451647 73.217595,120.541634 73.1122763,120.645023 C73.1004598,120.658111 73.0876563,120.670272 73.0739785,120.681401 C73.0261063,120.725437 72.9763193,120.771388 72.9246173,120.813509 C72.7331286,120.989654 72.5167464,121.156225 72.3003642,121.313224 L72.2620664,121.340029 L72.1835561,121.395552 C72.1490881,121.422357 72.1146201,121.445332 72.0782373,121.470222 C71.9269612,121.573612 71.7737702,121.673172 71.6167495,121.766988 L71.5478136,121.809109 L71.4941967,121.839743 L71.2624954,121.968022 L71.1495171,122.027375 L71.1361129,122.027375 L71.1054747,122.044607 L71.0422834,122.077155 L71.0078154,122.094387 L70.8163267,122.180545 L70.7186675,122.226495 L70.5271788,122.306909 L70.2552648,122.419872 L70.1116483,122.473481 L70.0139891,122.509858 L69.9756913,122.523261 L69.7842026,122.588358 L69.7573942,122.588358 L69.6999476,122.605589 L69.6559052,122.620906 L69.6042032,122.636223 L69.5256929,122.659198 L69.4816505,122.672601 L69.4644165,122.672601 L69.4490974,122.672601 L69.4261188,122.672601 L69.3456935,122.693662 C69.3277159,122.700533 69.30912,122.705662 69.2901618,122.708978 L69.1542048,122.745356 C69.0546307,122.770246 68.9531417,122.793222 68.8516526,122.812368 C68.6869724,122.846831 68.5203772,122.877465 68.353782,122.902355 C68.2542079,122.917672 68.1546338,122.931074 68.0550596,122.942562 L68.0186768,122.942562 L67.8271881,122.961708 C67.5667635,122.984683 67.3063388,122.998085 67.0401695,123 L66.8218724,123 C66.6303837,123 66.4274057,122.986598 66.2320872,122.969366 L66.1746406,122.969366 L66.0137901,122.954049 L65.9563435,122.954049 L65.9218755,122.954049 L65.7303868,122.931074 L65.6384722,122.917672 L65.6097489,122.917672 L65.3665583,122.87555 L65.3052819,122.864062 L65.1444314,122.833428 L65.0774103,122.818112 L64.9682618,122.791307 C64.9594352,122.793285 64.95028,122.793285 64.9414534,122.791307 C64.8074113,122.762588 64.6752841,122.728125 64.5450717,122.691747 L64.4761358,122.670686 L64.4512423,122.670686 L64.370817,122.647711 L64.2961364,122.624735 L64.2176261,122.599845 L64.167839,122.582614 L64.0280523,122.534748 L63.930393,122.500285 L63.8403933,122.460078 L63.7235852,122.414128 L63.6527344,122.385408 L63.5627347,122.349031 C63.4631606,122.308186 63.3655013,122.266064 63.269757,122.222666 C63.1184809,122.15374 62.9691197,122.080985 62.8235883,122.000571 C62.7699715,121.975681 62.7182695,121.946962 62.6665676,121.918242 L62.626355,121.895267 L62.5803977,121.870377 L62.4501854,121.795707 L62.3793345,121.753585 C62.2835902,121.694232 62.1878458,121.634879 62.0940164,121.562124 C61.998272,121.498942 61.9025277,121.435759 61.8144429,121.370662 L61.7914642,121.355345 L61.7761451,121.343858 L61.6976348,121.286419 L61.6114648,121.223237 L61.5961457,121.211749 C61.5597629,121.18303 61.5214651,121.156225 61.4869972,121.127506 C61.2437258,120.938099 61.0110361,120.735484 60.7899783,120.520573 C60.5831705,120.321453 60.3865754,120.11276 60.2001931,119.894494 C57.5805619,116.87366 57.2685615,112.486881 59.4342922,109.125795 C61.6000229,105.764709 65.7240298,104.23548 69.5579354,105.371832 C73.3918411,106.508183 76.0160755,110.03756 75.9999259,114.035771 Z" id="Shape" fill="#604CFF" fill-rule="nonzero"></path>
                <path d="M173.876195,35.8433365 L173.086129,35.1141303 C173.007846,35.0410964 172.901163,35 172.789854,35 C172.678545,35 172.571862,35.0410964 172.493579,35.1141303 L167.583319,39.6096863 L165.505445,37.67729 C165.427701,37.603334 165.320816,37.5615958 165.20917,37.5615958 C165.097524,37.5615958 164.99064,37.603334 164.912895,37.67729 L164.122829,38.4064961 C164.044188,38.4789889 164,38.5773643 164,38.6799485 C164,38.7825326 164.044188,38.8809081 164.122829,38.9534008 L167.283093,41.8866325 C167.361636,41.9592156 167.468222,42 167.579368,42 C167.690514,42 167.7971,41.9592156 167.875643,41.8866325 L173.868294,36.3975332 C173.950935,36.3260182 173.998473,36.2265344 173.999964,36.1219859 C174.001454,36.0174374 173.956769,35.9168336 173.876195,35.8433365 Z" id="Shape" fill="#3ACC6C" fill-rule="nonzero"></path>
                <path d="M173.87816,58.8424589 L173.087146,58.1140116 C173.008769,58.0410536 172.901958,58 172.790516,58 C172.679073,58 172.572262,58.0410536 172.493885,58.1140116 L167.587619,62.6121738 L165.507252,60.6817884 C165.429414,60.6079093 165.322401,60.5662146 165.210621,60.5662146 C165.098842,60.5662146 164.991828,60.6079093 164.913991,60.6817884 L164.122977,61.4102357 C164.044241,61.482653 164,61.5809261 164,61.6834034 C164,61.7858808 164.044241,61.8841539 164.122977,61.9565712 L167.287034,64.8867505 C167.365671,64.9592581 167.472385,65 167.583664,65 C167.694943,65 167.801657,64.9592581 167.880294,64.8867505 L173.874205,59.3887944 C173.953954,59.3171047 173.999248,59.219015 173.999991,59.1163867 C174.000734,59.0137585 173.956864,58.9151213 173.87816,58.8424589 Z" id="Shape" fill="#3ACC6C" fill-rule="nonzero"></path>
                <path d="M173.875482,111.842756 L173.085539,111.113392 C173.007008,111.040793 172.900439,111 172.78931,111 C172.678182,111 172.571613,111.040793 172.493082,111.113392 L167.583587,115.60992 L165.506037,113.677106 C165.427766,113.604056 165.321099,113.562951 165.209808,113.562951 C165.098517,113.562951 164.99185,113.604056 164.913579,113.677106 L164.123636,114.40647 C164.044519,114.478738 164,114.577225 164,114.679981 C164,114.782738 164.044519,114.881225 164.123636,114.953493 L167.283408,117.887359 C167.447399,118.037547 167.711875,118.037547 167.875865,117.887359 L173.867583,112.395249 C173.950614,112.324308 173.998471,112.22501 173.999964,112.120568 C174.001457,112.016126 173.956457,111.915696 173.875482,111.842756 Z" id="Shape" fill="#3ACC6C" fill-rule="nonzero"></path>
                <path d="M194.987797,143 C194.928397,142.691178 193.551202,135.363864 197.693787,125.670393 C199.315181,121.877876 199.180982,118.60969 197.299988,115.959149 C196.439174,114.754369 195.308398,113.772286 194,113.093098 L194.488398,112 C195.990403,112.765089 197.288213,113.883707 198.272385,115.261521 C199.74418,117.334408 201.028975,120.904752 198.791583,126.148069 C194.794197,135.5105 196.151592,142.70673 196.151592,142.777826 L194.987797,143 Z" id="Shape" fill="#6C63FF" fill-rule="nonzero"></path>
                <path d="M200.919066,125.067666 C202.577119,124.998008 203.955184,124.921921 203.998932,125.174831 C204.04268,125.427742 202.7368,125.913201 201.080934,125.982858 C199.425068,126.052516 198.044816,125.903556 198.001068,125.650646 C197.95732,125.397735 199.2632,125.137323 200.919066,125.067666 Z" id="Shape" fill="#6C63FF" fill-rule="nonzero"></path>
                <path d="M200.919066,125.067666 C202.577119,124.998008 203.955184,124.921921 203.998932,125.174831 C204.04268,125.427742 202.7368,125.913201 201.080934,125.982858 C199.425068,126.052516 198.044816,125.903556 198.001068,125.650646 C197.95732,125.397735 199.2632,125.137323 200.919066,125.067666 Z" id="Shape" fill="#000000" fill-rule="nonzero" opacity="0.1"></path>
                <path d="M200.930408,125.097287 C202.587145,125.020811 203.961024,124.90185 203.999188,125.145843 C204.037351,125.389836 202.726329,125.902101 201.069592,125.978576 C199.412855,126.055052 198.038976,125.920309 198.000812,125.67753 C197.962649,125.43475 199.273671,125.174976 200.930408,125.097287 Z" id="Shape" fill="#6C63FF" fill-rule="nonzero"></path>
                <path d="M198,125.496947 C199.305776,125.511423 200.611816,125.474409 201.905339,125.386268 C202.1507,125.369666 202.39379,125.350851 202.63688,125.332036 C203.091253,125.297725 203.545627,125.03099 204,125" id="Shape" fill="#407D3B" fill-rule="nonzero" opacity="0.3"></path>
                <path d="M197.920242,133.066846 C199.575476,132.998279 200.955201,132.922212 200.998933,133.173983 C201.042664,133.425753 199.737282,133.913224 198.079862,133.982863 C196.422442,134.052502 195.047089,133.903582 195.001171,133.65074 C194.955253,133.397898 196.265009,133.136485 197.920242,133.066846 Z" id="Shape" fill="#6C63FF" fill-rule="nonzero"></path>
                <path d="M197.920242,133.066846 C199.575476,132.998279 200.955201,132.922212 200.998933,133.173983 C201.042664,133.425753 199.737282,133.913224 198.079862,133.982863 C196.422442,134.052502 195.047089,133.903582 195.001171,133.65074 C194.955253,133.397898 196.265009,133.136485 197.920242,133.066846 Z" id="Shape" fill="#000000" fill-rule="nonzero" opacity="0.1"></path>
                <path d="M197.924658,133.097471 C199.584498,133.021011 200.960951,132.902074 200.999186,133.144804 C201.037421,133.387533 199.723943,133.902121 198.075348,133.978581 C196.426754,134.05504 195.039056,133.920325 195.000821,133.677596 C194.962586,133.434866 196.264818,133.173931 197.924658,133.097471 Z" id="Shape" fill="#6C63FF" fill-rule="nonzero"></path>
                <path d="M195,133.497154 C196.305755,133.511052 197.611699,133.474026 198.905339,133.38643 C199.1507,133.369821 199.39379,133.350998 199.63688,133.332174 C200.091253,133.29785 200.545627,133.031003 201,133" id="Shape" fill="#407D3B" fill-rule="nonzero" opacity="0.3"></path>
                <path d="M194.751307,123.540455 C193.348522,123.154483 192.191075,122.810618 192.020921,123.119395 C191.850766,123.428172 192.733196,124.275907 194.134003,124.663282 C195.53481,125.050657 196.810969,125.112413 196.981123,124.803636 C197.151278,124.494858 196.152114,123.92783 194.751307,123.540455 Z" id="Shape" fill="#6C63FF" fill-rule="nonzero"></path>
                <path d="M194.751307,123.540455 C193.348522,123.154483 192.191075,122.810618 192.020921,123.119395 C191.850766,123.428172 192.733196,124.275907 194.134003,124.663282 C195.53481,125.050657 196.810969,125.112413 196.981123,124.803636 C197.151278,124.494858 196.152114,123.92783 194.751307,123.540455 Z" id="Shape" fill="#000000" fill-rule="nonzero" opacity="0.1"></path>
                <path d="M194.70946,123.610902 C193.304707,123.211631 192.164618,122.813849 192.015999,123.093935 C191.86738,123.374021 192.767236,124.223218 194.17199,124.62249 C195.576743,125.021762 196.836949,125.12009 196.985568,124.841494 C197.134186,124.562897 196.118285,124.004215 194.70946,123.610902 Z" id="Shape" fill="#6C63FF" fill-rule="nonzero"></path>
                <path d="M197,124 C195.848352,123.872774 194.723686,123.707833 193.636929,123.50678 C193.429461,123.468644 193.221992,123.428814 193.014523,123.389831 C192.634855,123.316949 192.377593,123.073729 192,123" id="Shape" fill="#407D3B" fill-rule="nonzero" opacity="0.3"></path>
                <path d="M191.751307,131.541062 C190.348521,131.153848 189.191074,130.810125 189.02092,131.120177 C188.850765,131.430229 189.733195,132.276208 191.13598,132.663422 C192.538766,133.050636 193.810968,133.112366 193.981123,132.803717 C194.151278,132.495068 193.152114,131.926873 191.751307,131.541062 Z" id="Shape" fill="#6C63FF" fill-rule="nonzero"></path>
                <path d="M191.751307,131.541062 C190.348521,131.153848 189.191074,130.810125 189.02092,131.120177 C188.850765,131.430229 189.733195,132.276208 191.13598,132.663422 C192.538766,133.050636 193.810968,133.112366 193.981123,132.803717 C194.151278,132.495068 193.152114,131.926873 191.751307,131.541062 Z" id="Shape" fill="#000000" fill-rule="nonzero" opacity="0.1"></path>
                <path d="M191.709487,131.610003 C190.30472,131.210918 189.164619,130.814812 189.015999,131.093278 C188.867379,131.371743 189.767244,132.222032 191.172011,132.622606 C192.576777,133.023179 193.836996,133.119972 193.985616,132.840017 C194.134236,132.560063 193.114253,132.010577 191.709487,131.610003 Z" id="Shape" fill="#6C63FF" fill-rule="nonzero"></path>
                <path d="M194,132 C192.845295,131.872271 191.717446,131.707056 190.627231,131.505932 C190.419676,131.467797 190.212121,131.428814 190.014944,131.388983 C189.637194,131.316102 189.379826,131.072881 189,131" id="Shape" fill="#407D3B" fill-rule="nonzero" opacity="0.3"></path>
                <path d="M191.791708,136.167681 C190.194697,136.380593 188.849845,136.544096 189.013528,136.747127 C189.177211,136.950157 190.783069,137.112761 192.384504,136.899849 C193.985939,136.686936 195.142777,136.350049 194.98573,136.14612 C194.828683,135.942191 193.388719,135.95387 191.791708,136.167681 Z" id="Shape" fill="#6C63FF" fill-rule="nonzero"></path>
                <path d="M191.791708,136.167681 C190.194697,136.380593 188.849845,136.544096 189.013528,136.747127 C189.177211,136.950157 190.783069,137.112761 192.384504,136.899849 C193.985939,136.686936 195.142777,136.350049 194.98573,136.14612 C194.828683,135.942191 193.388719,135.95387 191.791708,136.167681 Z" id="Shape" fill="#000000" fill-rule="nonzero" opacity="0.1"></path>
                <path d="M191.832559,136.194792 C190.241085,136.425125 188.876964,136.574692 189.008829,136.766137 C189.140694,136.957583 190.750357,137.116124 192.350925,136.885791 C193.951493,136.655458 195.131457,136.313449 194.988224,136.123 C194.844992,135.932552 193.433127,135.968448 191.832559,136.194792 Z" id="Shape" fill="#6C63FF" fill-rule="nonzero"></path>
                <path d="M195,136 C193.793777,136.352573 192.545345,136.641313 191.266974,136.863384 L190.542002,136.98396 C190.081703,137.05839 189.451093,136.845521 189,136.918462" id="Shape" fill="#407D3B" fill-rule="nonzero" opacity="0.3"></path>
                <ellipse id="Oval" fill="#6C63FF" fill-rule="nonzero" transform="translate(198.500000, 113.000000) rotate(-76.340000) translate(-198.500000, -113.000000) " cx="198.5" cy="113" rx="2.5" ry="4"></ellipse>
                <ellipse id="Oval" fill="#000000" fill-rule="nonzero" opacity="0.1" transform="translate(198.500000, 113.000000) rotate(-76.340000) translate(-198.500000, -113.000000) " cx="198.5" cy="113" rx="2.5" ry="4"></ellipse>
                <ellipse id="Oval" fill="#6C63FF" fill-rule="nonzero" transform="translate(200.500000, 113.000000) rotate(-76.340000) translate(-200.500000, -113.000000) " cx="200.5" cy="113" rx="2.5" ry="4"></ellipse>
                <path d="M195,112 C196.427057,112.399279 197.937085,112.672224 199.486014,112.81087 C199.77972,112.836957 200.073427,112.858696 200.36014,112.880435 L202,113" id="Shape" fill="#407D3B" fill-rule="nonzero" opacity="0.3"></path>
                <ellipse id="Oval" fill="#6C63FF" fill-rule="nonzero" transform="translate(195.000000, 107.500000) rotate(-77.240000) translate(-195.000000, -107.500000) " cx="195" cy="107.5" rx="4" ry="2.5"></ellipse>
                <ellipse id="Oval" fill="#000000" fill-rule="nonzero" opacity="0.1" transform="translate(195.000000, 107.500000) rotate(-77.240000) translate(-195.000000, -107.500000) " cx="195" cy="107.5" rx="4" ry="2.5"></ellipse>
                <ellipse id="Oval" fill="#6C63FF" fill-rule="nonzero" transform="translate(195.000000, 107.500000) rotate(-77.240000) translate(-195.000000, -107.500000) " cx="195" cy="107.5" rx="4" ry="2.5"></ellipse>
                <path d="M194,111 C194.411299,109.363063 194.687131,107.635041 194.819444,105.866385 C194.844907,105.533964 194.864583,105.197562 194.884259,104.871112 L195,103" id="Shape" fill="#407D3B" fill-rule="nonzero" opacity="0.3"></path>
                <ellipse id="Oval" fill="#6C63FF" fill-rule="nonzero" transform="translate(193.000000, 116.500000) rotate(-77.240000) translate(-193.000000, -116.500000) " cx="193" cy="116.5" rx="4" ry="2.5"></ellipse>
                <ellipse id="Oval" fill="#000000" fill-rule="nonzero" opacity="0.1" transform="translate(193.000000, 116.500000) rotate(-77.240000) translate(-193.000000, -116.500000) " cx="193" cy="116.5" rx="4" ry="2.5"></ellipse>
                <ellipse id="Oval" fill="#6C63FF" fill-rule="nonzero" transform="translate(193.000000, 116.500000) rotate(-77.240000) translate(-193.000000, -116.500000) " cx="193" cy="116.5" rx="4" ry="2.5"></ellipse>
                <path d="M192,120 C192.410938,118.362549 192.686608,116.634661 192.819026,114.866385 C192.843387,114.533964 192.864269,114.197562 192.883991,113.871112 L193,112" id="Shape" fill="#407D3B" fill-rule="nonzero" opacity="0.3"></path>
                <ellipse id="Oval" fill="#6C63FF" fill-rule="nonzero" transform="translate(188.500000, 110.000000) rotate(-76.340000) translate(-188.500000, -110.000000) " cx="188.5" cy="110" rx="2.5" ry="4"></ellipse>
                <ellipse id="Oval" fill="#000000" fill-rule="nonzero" opacity="0.1" transform="translate(188.500000, 110.000000) rotate(-76.340000) translate(-188.500000, -110.000000) " cx="188.5" cy="110" rx="2.5" ry="4"></ellipse>
                <ellipse id="Oval" fill="#6C63FF" fill-rule="nonzero" transform="translate(188.500000, 110.000000) rotate(-76.340000) translate(-188.500000, -110.000000) " cx="188.5" cy="110" rx="2.5" ry="4"></ellipse>
                <path d="M185,109 C186.426791,109.399343 187.936673,109.672361 189.485522,109.811075 C189.777334,109.837134 190.070894,109.858849 190.359211,109.880565 L192,110" id="Shape" fill="#407D3B" fill-rule="nonzero" opacity="0.3"></path>
                <ellipse id="Oval" fill="#6C63FF" fill-rule="nonzero" transform="translate(195.000000, 114.500000) rotate(-37.180000) translate(-195.000000, -114.500000) " cx="195" cy="114.5" rx="1" ry="3.5"></ellipse>
                <ellipse id="Oval" fill="#000000" fill-rule="nonzero" opacity="0.1" transform="translate(195.000000, 114.500000) rotate(-37.180000) translate(-195.000000, -114.500000) " cx="195" cy="114.5" rx="1" ry="3.5"></ellipse>
                <ellipse id="Oval" fill="#6C63FF" fill-rule="nonzero" transform="translate(195.000000, 115.500000) rotate(-37.180000) translate(-195.000000, -115.500000) " cx="195" cy="115.5" rx="1" ry="3.5"></ellipse>
                <path d="M194,112 C194.793844,113.480754 195.805359,114.850213 197.005086,116.068493 C197.236246,116.297765 197.467406,116.522711 197.698567,116.747657 L199,118" id="Shape" fill="#407D3B" fill-rule="nonzero" opacity="0.3"></path>
                <ellipse id="Oval" fill="#6C63FF" fill-rule="nonzero" transform="translate(190.000000, 109.500000) rotate(-36.869898) translate(-190.000000, -109.500000) " cx="190" cy="109.5" rx="1" ry="3.5"></ellipse>
                <ellipse id="Oval" fill="#000000" fill-rule="nonzero" opacity="0.1" transform="translate(190.000000, 109.500000) rotate(-36.869898) translate(-190.000000, -109.500000) " cx="190" cy="109.5" rx="1" ry="3.5"></ellipse>
                <ellipse id="Oval" fill="#6C63FF" fill-rule="nonzero" transform="translate(190.000000, 108.500000) rotate(-37.180000) translate(-190.000000, -108.500000) " cx="190" cy="108.5" rx="1" ry="3.5"></ellipse>
                <path d="M189,106 C189.793029,107.481206 190.804619,108.850766 192.005086,110.068493 C192.236246,110.299928 192.467406,110.522711 192.698567,110.747657 L194,112" id="Shape" fill="#407D3B" fill-rule="nonzero" opacity="0.3"></path>
                <ellipse id="Oval" fill="#6C63FF" fill-rule="nonzero" transform="translate(197.000000, 110.000000) rotate(-37.190000) translate(-197.000000, -110.000000) " cx="197" cy="110" rx="3" ry="1"></ellipse>
                <ellipse id="Oval" fill="#000000" fill-rule="nonzero" opacity="0.1" transform="translate(197.000000, 110.000000) rotate(-37.190000) translate(-197.000000, -110.000000) " cx="197" cy="110" rx="3" ry="1"></ellipse>
                <ellipse id="Oval" fill="#6C63FF" fill-rule="nonzero" transform="translate(197.000000, 110.000000) rotate(-37.190000) translate(-197.000000, -110.000000) " cx="197" cy="110" rx="3" ry="1"></ellipse>
                <path d="M199,107 C197.768699,107.793067 196.630082,108.804758 195.617523,110.00542 C195.425864,110.230352 195.240522,110.463415 195.053075,110.696477 L194,112" id="Shape" fill="#407D3B" fill-rule="nonzero" opacity="0.3"></path>
                <ellipse id="Oval" fill="#6C63FF" fill-rule="nonzero" transform="translate(191.000000, 113.000000) rotate(-29.900000) translate(-191.000000, -113.000000) " cx="191" cy="113" rx="3" ry="1"></ellipse>
                <ellipse id="Oval" fill="#000000" fill-rule="nonzero" opacity="0.1" transform="translate(191.000000, 113.000000) rotate(-29.900000) translate(-191.000000, -113.000000) " cx="191" cy="113" rx="3" ry="1"></ellipse>
                <ellipse id="Oval" fill="#6C63FF" fill-rule="nonzero" transform="translate(191.000000, 113.000000) rotate(-29.900000) translate(-191.000000, -113.000000) " cx="191" cy="113" rx="3" ry="1"></ellipse>
                <path d="M189,114 C190.138202,113.42009 191.406811,112.938181 192.768879,112.568306 C193.025172,112.498634 193.286041,112.431694 193.544622,112.367486 L195,112" id="Shape" fill="#407D3B" fill-rule="nonzero" opacity="0.3"></path>
                <ellipse id="Oval" fill="#6C63FF" fill-rule="nonzero" transform="translate(192.500000, 110.000000) rotate(-37.720000) translate(-192.500000, -110.000000) " cx="192.5" cy="110" rx="1" ry="1"></ellipse>
                <ellipse id="Oval" fill="#000000" fill-rule="nonzero" opacity="0.1" transform="translate(192.500000, 110.000000) rotate(-37.720000) translate(-192.500000, -110.000000) " cx="192.5" cy="110" rx="1" ry="1"></ellipse>
                <ellipse id="Oval" fill="#6C63FF" fill-rule="nonzero" transform="translate(192.500000, 110.000000) rotate(-37.720000) translate(-192.500000, -110.000000) " cx="192.5" cy="110" rx="1" ry="1"></ellipse>
                <path d="M192,111 C192.269785,111.181788 192.504683,111.390956 192.697943,111.621491 C192.733933,111.665053 192.769923,111.708616 192.804627,111.753146 L193,112" id="Shape" fill="#407D3B" fill-rule="nonzero" opacity="0.3"></path>
                <ellipse id="Oval" fill="#6C63FF" fill-rule="nonzero" transform="translate(194.500000, 113.000000) rotate(-37.720000) translate(-194.500000, -113.000000) " cx="194.5" cy="113" rx="1" ry="1"></ellipse>
                <ellipse id="Oval" fill="#000000" fill-rule="nonzero" opacity="0.1" transform="translate(194.500000, 113.000000) rotate(-37.720000) translate(-194.500000, -113.000000) " cx="194.5" cy="113" rx="1" ry="1"></ellipse>
                <ellipse id="Oval" fill="#6C63FF" fill-rule="nonzero" transform="translate(194.500000, 113.000000) rotate(-37.720000) translate(-194.500000, -113.000000) " cx="194.5" cy="113" rx="1" ry="1"></ellipse>
                <path d="M194,112 C194.270541,112.181501 194.505914,112.390706 194.699229,112.621491 C194.735219,112.665053 194.769923,112.708616 194.804627,112.753146 L195,113" id="Shape" fill="#407D3B" fill-rule="nonzero" opacity="0.3"></path>
                <circle id="Oval" fill="#6C63FF" fill-rule="nonzero" cx="194.25" cy="112.25" r="1"></circle>
                <circle id="Oval" fill="#407D3B" fill-rule="nonzero" opacity="0.3" cx="194.25" cy="112.25" r="1"></circle>
            </g>
        </g>
    </g>
</svg>